<mxfile host="Electron" agent="Mozilla/5.0 (Windows NT 10.0; Win64; x64) AppleWebKit/537.36 (KHTML, like Gecko) draw.io/26.0.16 Chrome/132.0.6834.196 Electron/34.2.0 Safari/537.36" version="26.0.16" pages="2">
  <diagram id="AePWMaD16EADWw4tJzo5" name="Login_schema">
    <mxGraphModel dx="1434" dy="836" grid="1" gridSize="9" guides="1" tooltips="1" connect="1" arrows="1" fold="1" page="1" pageScale="1" pageWidth="1654" pageHeight="1169" math="0" shadow="0">
      <root>
        <mxCell id="0" />
        <mxCell id="1" parent="0" />
        <mxCell id="2" value="user" style="shape=table;startSize=40;container=1;collapsible=0;childLayout=tableLayout;fontStyle=1;align=center;fillColor=#6a00ff;fontColor=#ffffff;strokeColor=#3700CC;rounded=1;" parent="1" vertex="1">
          <mxGeometry x="513" y="342" width="210" height="188" as="geometry" />
        </mxCell>
        <mxCell id="3" value="" style="shape=tableRow;horizontal=0;startSize=0;swimlaneHead=0;swimlaneBody=0;top=0;left=0;bottom=0;right=0;collapsible=0;dropTarget=0;fillColor=none;points=[[0,0.5],[1,0.5]];portConstraint=eastwest;rounded=1;" parent="2" vertex="1">
          <mxGeometry y="40" width="210" height="31" as="geometry" />
        </mxCell>
        <mxCell id="4" value="PK" style="shape=partialRectangle;html=1;whiteSpace=wrap;connectable=0;fillColor=none;top=0;left=0;bottom=0;right=0;overflow=hidden;rounded=1;" parent="3" vertex="1">
          <mxGeometry width="40" height="31" as="geometry">
            <mxRectangle width="40" height="31" as="alternateBounds" />
          </mxGeometry>
        </mxCell>
        <mxCell id="5" value="id" style="shape=partialRectangle;html=1;whiteSpace=wrap;connectable=0;fillColor=none;top=0;left=0;bottom=0;right=0;overflow=hidden;rounded=1;" parent="3" vertex="1">
          <mxGeometry x="40" width="99" height="31" as="geometry">
            <mxRectangle width="99" height="31" as="alternateBounds" />
          </mxGeometry>
        </mxCell>
        <mxCell id="6" value="integer" style="shape=partialRectangle;html=1;whiteSpace=wrap;connectable=0;fillColor=none;top=0;left=0;bottom=0;right=0;overflow=hidden;rounded=1;" parent="3" vertex="1">
          <mxGeometry x="139" width="71" height="31" as="geometry">
            <mxRectangle width="71" height="31" as="alternateBounds" />
          </mxGeometry>
        </mxCell>
        <mxCell id="7" value="" style="shape=tableRow;horizontal=0;startSize=0;swimlaneHead=0;swimlaneBody=0;top=0;left=0;bottom=0;right=0;collapsible=0;dropTarget=0;fillColor=none;points=[[0,0.5],[1,0.5]];portConstraint=eastwest;rounded=1;" parent="2" vertex="1">
          <mxGeometry y="71" width="210" height="30" as="geometry" />
        </mxCell>
        <mxCell id="8" value="" style="shape=partialRectangle;html=1;whiteSpace=wrap;connectable=0;fillColor=none;top=0;left=0;bottom=0;right=0;overflow=hidden;rounded=1;" parent="7" vertex="1">
          <mxGeometry width="40" height="30" as="geometry">
            <mxRectangle width="40" height="30" as="alternateBounds" />
          </mxGeometry>
        </mxCell>
        <mxCell id="9" value="email" style="shape=partialRectangle;html=1;whiteSpace=wrap;connectable=0;fillColor=none;top=0;left=0;bottom=0;right=0;overflow=hidden;rounded=1;" parent="7" vertex="1">
          <mxGeometry x="40" width="99" height="30" as="geometry">
            <mxRectangle width="99" height="30" as="alternateBounds" />
          </mxGeometry>
        </mxCell>
        <mxCell id="10" value="varchar" style="shape=partialRectangle;html=1;whiteSpace=wrap;connectable=0;fillColor=none;top=0;left=0;bottom=0;right=0;overflow=hidden;rounded=1;" parent="7" vertex="1">
          <mxGeometry x="139" width="71" height="30" as="geometry">
            <mxRectangle width="71" height="30" as="alternateBounds" />
          </mxGeometry>
        </mxCell>
        <mxCell id="11" value="" style="shape=tableRow;horizontal=0;startSize=0;swimlaneHead=0;swimlaneBody=0;top=0;left=0;bottom=0;right=0;collapsible=0;dropTarget=0;fillColor=none;points=[[0,0.5],[1,0.5]];portConstraint=eastwest;rounded=1;" parent="2" vertex="1">
          <mxGeometry y="101" width="210" height="29" as="geometry" />
        </mxCell>
        <mxCell id="12" value="" style="shape=partialRectangle;html=1;whiteSpace=wrap;connectable=0;fillColor=none;top=0;left=0;bottom=0;right=0;overflow=hidden;rounded=1;" parent="11" vertex="1">
          <mxGeometry width="40" height="29" as="geometry">
            <mxRectangle width="40" height="29" as="alternateBounds" />
          </mxGeometry>
        </mxCell>
        <mxCell id="13" value="password" style="shape=partialRectangle;html=1;whiteSpace=wrap;connectable=0;fillColor=none;top=0;left=0;bottom=0;right=0;overflow=hidden;rounded=1;" parent="11" vertex="1">
          <mxGeometry x="40" width="99" height="29" as="geometry">
            <mxRectangle width="99" height="29" as="alternateBounds" />
          </mxGeometry>
        </mxCell>
        <mxCell id="14" value="varchar" style="shape=partialRectangle;html=1;whiteSpace=wrap;connectable=0;fillColor=none;top=0;left=0;bottom=0;right=0;overflow=hidden;rounded=1;" parent="11" vertex="1">
          <mxGeometry x="139" width="71" height="29" as="geometry">
            <mxRectangle width="71" height="29" as="alternateBounds" />
          </mxGeometry>
        </mxCell>
        <mxCell id="37" value="" style="shape=tableRow;horizontal=0;startSize=0;swimlaneHead=0;swimlaneBody=0;top=0;left=0;bottom=0;right=0;collapsible=0;dropTarget=0;fillColor=none;points=[[0,0.5],[1,0.5]];portConstraint=eastwest;rounded=1;" parent="2" vertex="1">
          <mxGeometry y="130" width="210" height="29" as="geometry" />
        </mxCell>
        <mxCell id="38" value="" style="shape=partialRectangle;html=1;whiteSpace=wrap;connectable=0;fillColor=none;top=0;left=0;bottom=0;right=0;overflow=hidden;rounded=1;" parent="37" vertex="1">
          <mxGeometry width="40" height="29" as="geometry">
            <mxRectangle width="40" height="29" as="alternateBounds" />
          </mxGeometry>
        </mxCell>
        <mxCell id="39" value="active" style="shape=partialRectangle;html=1;whiteSpace=wrap;connectable=0;fillColor=none;top=0;left=0;bottom=0;right=0;overflow=hidden;rounded=1;" parent="37" vertex="1">
          <mxGeometry x="40" width="99" height="29" as="geometry">
            <mxRectangle width="99" height="29" as="alternateBounds" />
          </mxGeometry>
        </mxCell>
        <mxCell id="40" value="boolean" style="shape=partialRectangle;html=1;whiteSpace=wrap;connectable=0;fillColor=none;top=0;left=0;bottom=0;right=0;overflow=hidden;rounded=1;" parent="37" vertex="1">
          <mxGeometry x="139" width="71" height="29" as="geometry">
            <mxRectangle width="71" height="29" as="alternateBounds" />
          </mxGeometry>
        </mxCell>
        <mxCell id="0T7iEdLhulCCUGAcLnBV-123" value="" style="shape=tableRow;horizontal=0;startSize=0;swimlaneHead=0;swimlaneBody=0;top=0;left=0;bottom=0;right=0;collapsible=0;dropTarget=0;fillColor=none;points=[[0,0.5],[1,0.5]];portConstraint=eastwest;rounded=1;" parent="2" vertex="1">
          <mxGeometry y="159" width="210" height="29" as="geometry" />
        </mxCell>
        <mxCell id="0T7iEdLhulCCUGAcLnBV-124" value="" style="shape=partialRectangle;html=1;whiteSpace=wrap;connectable=0;fillColor=none;top=0;left=0;bottom=0;right=0;overflow=hidden;rounded=1;" parent="0T7iEdLhulCCUGAcLnBV-123" vertex="1">
          <mxGeometry width="40" height="29" as="geometry">
            <mxRectangle width="40" height="29" as="alternateBounds" />
          </mxGeometry>
        </mxCell>
        <mxCell id="0T7iEdLhulCCUGAcLnBV-125" value="fs_uniquifier" style="shape=partialRectangle;html=1;whiteSpace=wrap;connectable=0;fillColor=none;top=0;left=0;bottom=0;right=0;overflow=hidden;rounded=1;" parent="0T7iEdLhulCCUGAcLnBV-123" vertex="1">
          <mxGeometry x="40" width="99" height="29" as="geometry">
            <mxRectangle width="99" height="29" as="alternateBounds" />
          </mxGeometry>
        </mxCell>
        <mxCell id="0T7iEdLhulCCUGAcLnBV-126" value="varchar" style="shape=partialRectangle;html=1;whiteSpace=wrap;connectable=0;fillColor=none;top=0;left=0;bottom=0;right=0;overflow=hidden;rounded=1;" parent="0T7iEdLhulCCUGAcLnBV-123" vertex="1">
          <mxGeometry x="139" width="71" height="29" as="geometry">
            <mxRectangle width="71" height="29" as="alternateBounds" />
          </mxGeometry>
        </mxCell>
        <mxCell id="58" value="user_data" style="shape=table;startSize=40;container=1;collapsible=0;childLayout=tableLayout;fontStyle=1;align=center;fillColor=#008a00;strokeColor=#005700;fontColor=#ffffff;rounded=1;" parent="1" vertex="1">
          <mxGeometry x="243" y="501" width="210" height="188" as="geometry" />
        </mxCell>
        <mxCell id="59" value="" style="shape=tableRow;horizontal=0;startSize=0;swimlaneHead=0;swimlaneBody=0;top=0;left=0;bottom=0;right=0;collapsible=0;dropTarget=0;fillColor=none;points=[[0,0.5],[1,0.5]];portConstraint=eastwest;rounded=1;" parent="58" vertex="1">
          <mxGeometry y="40" width="210" height="30" as="geometry" />
        </mxCell>
        <mxCell id="60" value="PK" style="shape=partialRectangle;html=1;whiteSpace=wrap;connectable=0;fillColor=none;top=0;left=0;bottom=0;right=0;overflow=hidden;rounded=1;" parent="59" vertex="1">
          <mxGeometry width="40" height="30" as="geometry">
            <mxRectangle width="40" height="30" as="alternateBounds" />
          </mxGeometry>
        </mxCell>
        <mxCell id="61" value="id" style="shape=partialRectangle;html=1;whiteSpace=wrap;connectable=0;fillColor=none;top=0;left=0;bottom=0;right=0;overflow=hidden;rounded=1;" parent="59" vertex="1">
          <mxGeometry x="40" width="99" height="30" as="geometry">
            <mxRectangle width="99" height="30" as="alternateBounds" />
          </mxGeometry>
        </mxCell>
        <mxCell id="62" value="integer" style="shape=partialRectangle;html=1;whiteSpace=wrap;connectable=0;fillColor=none;top=0;left=0;bottom=0;right=0;overflow=hidden;rounded=1;" parent="59" vertex="1">
          <mxGeometry x="139" width="71" height="30" as="geometry">
            <mxRectangle width="71" height="30" as="alternateBounds" />
          </mxGeometry>
        </mxCell>
        <mxCell id="105" value="" style="shape=tableRow;horizontal=0;startSize=0;swimlaneHead=0;swimlaneBody=0;top=0;left=0;bottom=0;right=0;collapsible=0;dropTarget=0;fillColor=none;points=[[0,0.5],[1,0.5]];portConstraint=eastwest;rounded=1;" parent="58" vertex="1">
          <mxGeometry y="70" width="210" height="30" as="geometry" />
        </mxCell>
        <mxCell id="106" value="FK" style="shape=partialRectangle;html=1;whiteSpace=wrap;connectable=0;fillColor=none;top=0;left=0;bottom=0;right=0;overflow=hidden;rounded=1;" parent="105" vertex="1">
          <mxGeometry width="40" height="30" as="geometry">
            <mxRectangle width="40" height="30" as="alternateBounds" />
          </mxGeometry>
        </mxCell>
        <mxCell id="107" value="user_id" style="shape=partialRectangle;html=1;whiteSpace=wrap;connectable=0;fillColor=none;top=0;left=0;bottom=0;right=0;overflow=hidden;rounded=1;" parent="105" vertex="1">
          <mxGeometry x="40" width="99" height="30" as="geometry">
            <mxRectangle width="99" height="30" as="alternateBounds" />
          </mxGeometry>
        </mxCell>
        <mxCell id="108" value="integer" style="shape=partialRectangle;html=1;whiteSpace=wrap;connectable=0;fillColor=none;top=0;left=0;bottom=0;right=0;overflow=hidden;rounded=1;" parent="105" vertex="1">
          <mxGeometry x="139" width="71" height="30" as="geometry">
            <mxRectangle width="71" height="30" as="alternateBounds" />
          </mxGeometry>
        </mxCell>
        <mxCell id="63" value="" style="shape=tableRow;horizontal=0;startSize=0;swimlaneHead=0;swimlaneBody=0;top=0;left=0;bottom=0;right=0;collapsible=0;dropTarget=0;fillColor=none;points=[[0,0.5],[1,0.5]];portConstraint=eastwest;rounded=1;" parent="58" vertex="1">
          <mxGeometry y="100" width="210" height="30" as="geometry" />
        </mxCell>
        <mxCell id="64" value="" style="shape=partialRectangle;html=1;whiteSpace=wrap;connectable=0;fillColor=none;top=0;left=0;bottom=0;right=0;overflow=hidden;rounded=1;" parent="63" vertex="1">
          <mxGeometry width="40" height="30" as="geometry">
            <mxRectangle width="40" height="30" as="alternateBounds" />
          </mxGeometry>
        </mxCell>
        <mxCell id="65" value="full_name" style="shape=partialRectangle;html=1;whiteSpace=wrap;connectable=0;fillColor=none;top=0;left=0;bottom=0;right=0;overflow=hidden;rounded=1;" parent="63" vertex="1">
          <mxGeometry x="40" width="99" height="30" as="geometry">
            <mxRectangle width="99" height="30" as="alternateBounds" />
          </mxGeometry>
        </mxCell>
        <mxCell id="66" value="varchar" style="shape=partialRectangle;html=1;whiteSpace=wrap;connectable=0;fillColor=none;top=0;left=0;bottom=0;right=0;overflow=hidden;rounded=1;" parent="63" vertex="1">
          <mxGeometry x="139" width="71" height="30" as="geometry">
            <mxRectangle width="71" height="30" as="alternateBounds" />
          </mxGeometry>
        </mxCell>
        <mxCell id="67" value="" style="shape=tableRow;horizontal=0;startSize=0;swimlaneHead=0;swimlaneBody=0;top=0;left=0;bottom=0;right=0;collapsible=0;dropTarget=0;fillColor=none;points=[[0,0.5],[1,0.5]];portConstraint=eastwest;rounded=1;" parent="58" vertex="1">
          <mxGeometry y="130" width="210" height="29" as="geometry" />
        </mxCell>
        <mxCell id="68" value="" style="shape=partialRectangle;html=1;whiteSpace=wrap;connectable=0;fillColor=none;top=0;left=0;bottom=0;right=0;overflow=hidden;rounded=1;" parent="67" vertex="1">
          <mxGeometry width="40" height="29" as="geometry">
            <mxRectangle width="40" height="29" as="alternateBounds" />
          </mxGeometry>
        </mxCell>
        <mxCell id="69" value="qualification" style="shape=partialRectangle;html=1;whiteSpace=wrap;connectable=0;fillColor=none;top=0;left=0;bottom=0;right=0;overflow=hidden;rounded=1;" parent="67" vertex="1">
          <mxGeometry x="40" width="99" height="29" as="geometry">
            <mxRectangle width="99" height="29" as="alternateBounds" />
          </mxGeometry>
        </mxCell>
        <mxCell id="70" value="blob" style="shape=partialRectangle;html=1;whiteSpace=wrap;connectable=0;fillColor=none;top=0;left=0;bottom=0;right=0;overflow=hidden;rounded=1;" parent="67" vertex="1">
          <mxGeometry x="139" width="71" height="29" as="geometry">
            <mxRectangle width="71" height="29" as="alternateBounds" />
          </mxGeometry>
        </mxCell>
        <mxCell id="71" value="" style="shape=tableRow;horizontal=0;startSize=0;swimlaneHead=0;swimlaneBody=0;top=0;left=0;bottom=0;right=0;collapsible=0;dropTarget=0;fillColor=none;points=[[0,0.5],[1,0.5]];portConstraint=eastwest;rounded=1;" parent="58" vertex="1">
          <mxGeometry y="159" width="210" height="29" as="geometry" />
        </mxCell>
        <mxCell id="72" value="" style="shape=partialRectangle;html=1;whiteSpace=wrap;connectable=0;fillColor=none;top=0;left=0;bottom=0;right=0;overflow=hidden;rounded=1;" parent="71" vertex="1">
          <mxGeometry width="40" height="29" as="geometry">
            <mxRectangle width="40" height="29" as="alternateBounds" />
          </mxGeometry>
        </mxCell>
        <mxCell id="73" value="dob" style="shape=partialRectangle;html=1;whiteSpace=wrap;connectable=0;fillColor=none;top=0;left=0;bottom=0;right=0;overflow=hidden;rounded=1;" parent="71" vertex="1">
          <mxGeometry x="40" width="99" height="29" as="geometry">
            <mxRectangle width="99" height="29" as="alternateBounds" />
          </mxGeometry>
        </mxCell>
        <mxCell id="74" value="date" style="shape=partialRectangle;html=1;whiteSpace=wrap;connectable=0;fillColor=none;top=0;left=0;bottom=0;right=0;overflow=hidden;rounded=1;" parent="71" vertex="1">
          <mxGeometry x="139" width="71" height="29" as="geometry">
            <mxRectangle width="71" height="29" as="alternateBounds" />
          </mxGeometry>
        </mxCell>
        <mxCell id="75" value="roles_users" style="shape=table;startSize=40;container=1;collapsible=0;childLayout=tableLayout;fontStyle=1;align=center;fillColor=#d80073;fontColor=#ffffff;strokeColor=#A50040;rounded=1;" parent="1" vertex="1">
          <mxGeometry x="783" y="486" width="210" height="130" as="geometry" />
        </mxCell>
        <mxCell id="76" value="" style="shape=tableRow;horizontal=0;startSize=0;swimlaneHead=0;swimlaneBody=0;top=0;left=0;bottom=0;right=0;collapsible=0;dropTarget=0;fillColor=none;points=[[0,0.5],[1,0.5]];portConstraint=eastwest;rounded=1;" parent="75" vertex="1">
          <mxGeometry y="40" width="210" height="31" as="geometry" />
        </mxCell>
        <mxCell id="77" value="PK" style="shape=partialRectangle;html=1;whiteSpace=wrap;connectable=0;fillColor=none;top=0;left=0;bottom=0;right=0;overflow=hidden;rounded=1;" parent="76" vertex="1">
          <mxGeometry width="40" height="31" as="geometry">
            <mxRectangle width="40" height="31" as="alternateBounds" />
          </mxGeometry>
        </mxCell>
        <mxCell id="78" value="id" style="shape=partialRectangle;html=1;whiteSpace=wrap;connectable=0;fillColor=none;top=0;left=0;bottom=0;right=0;overflow=hidden;rounded=1;" parent="76" vertex="1">
          <mxGeometry x="40" width="99" height="31" as="geometry">
            <mxRectangle width="99" height="31" as="alternateBounds" />
          </mxGeometry>
        </mxCell>
        <mxCell id="79" value="integer" style="shape=partialRectangle;html=1;whiteSpace=wrap;connectable=0;fillColor=none;top=0;left=0;bottom=0;right=0;overflow=hidden;rounded=1;" parent="76" vertex="1">
          <mxGeometry x="139" width="71" height="31" as="geometry">
            <mxRectangle width="71" height="31" as="alternateBounds" />
          </mxGeometry>
        </mxCell>
        <mxCell id="80" value="" style="shape=tableRow;horizontal=0;startSize=0;swimlaneHead=0;swimlaneBody=0;top=0;left=0;bottom=0;right=0;collapsible=0;dropTarget=0;fillColor=none;points=[[0,0.5],[1,0.5]];portConstraint=eastwest;rounded=1;" parent="75" vertex="1">
          <mxGeometry y="71" width="210" height="30" as="geometry" />
        </mxCell>
        <mxCell id="81" value="FK" style="shape=partialRectangle;html=1;whiteSpace=wrap;connectable=0;fillColor=none;top=0;left=0;bottom=0;right=0;overflow=hidden;rounded=1;" parent="80" vertex="1">
          <mxGeometry width="40" height="30" as="geometry">
            <mxRectangle width="40" height="30" as="alternateBounds" />
          </mxGeometry>
        </mxCell>
        <mxCell id="82" value="user_id" style="shape=partialRectangle;html=1;whiteSpace=wrap;connectable=0;fillColor=none;top=0;left=0;bottom=0;right=0;overflow=hidden;rounded=1;" parent="80" vertex="1">
          <mxGeometry x="40" width="99" height="30" as="geometry">
            <mxRectangle width="99" height="30" as="alternateBounds" />
          </mxGeometry>
        </mxCell>
        <mxCell id="83" value="integer" style="shape=partialRectangle;html=1;whiteSpace=wrap;connectable=0;fillColor=none;top=0;left=0;bottom=0;right=0;overflow=hidden;rounded=1;" parent="80" vertex="1">
          <mxGeometry x="139" width="71" height="30" as="geometry">
            <mxRectangle width="71" height="30" as="alternateBounds" />
          </mxGeometry>
        </mxCell>
        <mxCell id="84" value="" style="shape=tableRow;horizontal=0;startSize=0;swimlaneHead=0;swimlaneBody=0;top=0;left=0;bottom=0;right=0;collapsible=0;dropTarget=0;fillColor=none;points=[[0,0.5],[1,0.5]];portConstraint=eastwest;rounded=1;" parent="75" vertex="1">
          <mxGeometry y="101" width="210" height="29" as="geometry" />
        </mxCell>
        <mxCell id="85" value="FK" style="shape=partialRectangle;html=1;whiteSpace=wrap;connectable=0;fillColor=none;top=0;left=0;bottom=0;right=0;overflow=hidden;rounded=1;" parent="84" vertex="1">
          <mxGeometry width="40" height="29" as="geometry">
            <mxRectangle width="40" height="29" as="alternateBounds" />
          </mxGeometry>
        </mxCell>
        <mxCell id="86" value="role_id" style="shape=partialRectangle;html=1;whiteSpace=wrap;connectable=0;fillColor=none;top=0;left=0;bottom=0;right=0;overflow=hidden;rounded=1;" parent="84" vertex="1">
          <mxGeometry x="40" width="99" height="29" as="geometry">
            <mxRectangle width="99" height="29" as="alternateBounds" />
          </mxGeometry>
        </mxCell>
        <mxCell id="87" value="integer" style="shape=partialRectangle;html=1;whiteSpace=wrap;connectable=0;fillColor=none;top=0;left=0;bottom=0;right=0;overflow=hidden;rounded=1;" parent="84" vertex="1">
          <mxGeometry x="139" width="71" height="29" as="geometry">
            <mxRectangle width="71" height="29" as="alternateBounds" />
          </mxGeometry>
        </mxCell>
        <mxCell id="110" value="role" style="shape=table;startSize=40;container=1;collapsible=0;childLayout=tableLayout;fontStyle=1;align=center;fillColor=#1ba1e2;fontColor=#ffffff;strokeColor=#006EAF;rounded=1;" parent="1" vertex="1">
          <mxGeometry x="513" y="589" width="210" height="130" as="geometry" />
        </mxCell>
        <mxCell id="111" value="" style="shape=tableRow;horizontal=0;startSize=0;swimlaneHead=0;swimlaneBody=0;top=0;left=0;bottom=0;right=0;collapsible=0;dropTarget=0;fillColor=none;points=[[0,0.5],[1,0.5]];portConstraint=eastwest;rounded=1;" parent="110" vertex="1">
          <mxGeometry y="40" width="210" height="31" as="geometry" />
        </mxCell>
        <mxCell id="112" value="PK" style="shape=partialRectangle;html=1;whiteSpace=wrap;connectable=0;fillColor=none;top=0;left=0;bottom=0;right=0;overflow=hidden;rounded=1;" parent="111" vertex="1">
          <mxGeometry width="40" height="31" as="geometry">
            <mxRectangle width="40" height="31" as="alternateBounds" />
          </mxGeometry>
        </mxCell>
        <mxCell id="113" value="id" style="shape=partialRectangle;html=1;whiteSpace=wrap;connectable=0;fillColor=none;top=0;left=0;bottom=0;right=0;overflow=hidden;rounded=1;" parent="111" vertex="1">
          <mxGeometry x="40" width="99" height="31" as="geometry">
            <mxRectangle width="99" height="31" as="alternateBounds" />
          </mxGeometry>
        </mxCell>
        <mxCell id="114" value="integer" style="shape=partialRectangle;html=1;whiteSpace=wrap;connectable=0;fillColor=none;top=0;left=0;bottom=0;right=0;overflow=hidden;rounded=1;" parent="111" vertex="1">
          <mxGeometry x="139" width="71" height="31" as="geometry">
            <mxRectangle width="71" height="31" as="alternateBounds" />
          </mxGeometry>
        </mxCell>
        <mxCell id="115" value="" style="shape=tableRow;horizontal=0;startSize=0;swimlaneHead=0;swimlaneBody=0;top=0;left=0;bottom=0;right=0;collapsible=0;dropTarget=0;fillColor=none;points=[[0,0.5],[1,0.5]];portConstraint=eastwest;rounded=1;" parent="110" vertex="1">
          <mxGeometry y="71" width="210" height="30" as="geometry" />
        </mxCell>
        <mxCell id="116" value="" style="shape=partialRectangle;html=1;whiteSpace=wrap;connectable=0;fillColor=none;top=0;left=0;bottom=0;right=0;overflow=hidden;rounded=1;" parent="115" vertex="1">
          <mxGeometry width="40" height="30" as="geometry">
            <mxRectangle width="40" height="30" as="alternateBounds" />
          </mxGeometry>
        </mxCell>
        <mxCell id="117" value="name" style="shape=partialRectangle;html=1;whiteSpace=wrap;connectable=0;fillColor=none;top=0;left=0;bottom=0;right=0;overflow=hidden;rounded=1;" parent="115" vertex="1">
          <mxGeometry x="40" width="99" height="30" as="geometry">
            <mxRectangle width="99" height="30" as="alternateBounds" />
          </mxGeometry>
        </mxCell>
        <mxCell id="118" value="varchar" style="shape=partialRectangle;html=1;whiteSpace=wrap;connectable=0;fillColor=none;top=0;left=0;bottom=0;right=0;overflow=hidden;rounded=1;" parent="115" vertex="1">
          <mxGeometry x="139" width="71" height="30" as="geometry">
            <mxRectangle width="71" height="30" as="alternateBounds" />
          </mxGeometry>
        </mxCell>
        <mxCell id="119" value="" style="shape=tableRow;horizontal=0;startSize=0;swimlaneHead=0;swimlaneBody=0;top=0;left=0;bottom=0;right=0;collapsible=0;dropTarget=0;fillColor=none;points=[[0,0.5],[1,0.5]];portConstraint=eastwest;rounded=1;" parent="110" vertex="1">
          <mxGeometry y="101" width="210" height="29" as="geometry" />
        </mxCell>
        <mxCell id="120" value="" style="shape=partialRectangle;html=1;whiteSpace=wrap;connectable=0;fillColor=none;top=0;left=0;bottom=0;right=0;overflow=hidden;rounded=1;" parent="119" vertex="1">
          <mxGeometry width="40" height="29" as="geometry">
            <mxRectangle width="40" height="29" as="alternateBounds" />
          </mxGeometry>
        </mxCell>
        <mxCell id="121" value="description" style="shape=partialRectangle;html=1;whiteSpace=wrap;connectable=0;fillColor=none;top=0;left=0;bottom=0;right=0;overflow=hidden;rounded=1;" parent="119" vertex="1">
          <mxGeometry x="40" width="99" height="29" as="geometry">
            <mxRectangle width="99" height="29" as="alternateBounds" />
          </mxGeometry>
        </mxCell>
        <mxCell id="122" value="varchar" style="shape=partialRectangle;html=1;whiteSpace=wrap;connectable=0;fillColor=none;top=0;left=0;bottom=0;right=0;overflow=hidden;rounded=1;" parent="119" vertex="1">
          <mxGeometry x="139" width="71" height="29" as="geometry">
            <mxRectangle width="71" height="29" as="alternateBounds" />
          </mxGeometry>
        </mxCell>
        <mxCell id="123" value="" style="edgeStyle=entityRelationEdgeStyle;fontSize=12;html=1;endArrow=ERmandOne;startArrow=ERmandOne;entryX=0;entryY=0.5;entryDx=0;entryDy=0;exitX=1;exitY=0.5;exitDx=0;exitDy=0;" parent="1" target="3" edge="1" source="105">
          <mxGeometry width="100" height="100" relative="1" as="geometry">
            <mxPoint x="423" y="589" as="sourcePoint" />
            <mxPoint x="528" y="400.5" as="targetPoint" />
            <Array as="points">
              <mxPoint x="261" y="615" />
            </Array>
          </mxGeometry>
        </mxCell>
        <mxCell id="0kH3_DYdjzGzvhWI9CJF-125" value="" style="edgeStyle=entityRelationEdgeStyle;fontSize=12;html=1;endArrow=ERoneToMany;rounded=0;exitX=1;exitY=0.5;exitDx=0;exitDy=0;entryX=0;entryY=0.5;entryDx=0;entryDy=0;" edge="1" parent="1" source="3" target="80">
          <mxGeometry width="100" height="100" relative="1" as="geometry">
            <mxPoint x="675" y="613" as="sourcePoint" />
            <mxPoint x="775" y="513" as="targetPoint" />
          </mxGeometry>
        </mxCell>
        <mxCell id="0kH3_DYdjzGzvhWI9CJF-126" value="" style="edgeStyle=entityRelationEdgeStyle;fontSize=12;html=1;endArrow=ERoneToMany;rounded=0;entryX=0;entryY=0.5;entryDx=0;entryDy=0;exitX=1;exitY=0.5;exitDx=0;exitDy=0;" edge="1" parent="1" source="111" target="84">
          <mxGeometry width="100" height="100" relative="1" as="geometry">
            <mxPoint x="747" y="716" as="sourcePoint" />
            <mxPoint x="847" y="616" as="targetPoint" />
          </mxGeometry>
        </mxCell>
      </root>
    </mxGraphModel>
  </diagram>
  <diagram id="ZszP48bkQztbkFjtUUFm" name="Quiz_schema">
    <mxGraphModel dx="1434" dy="4144" grid="1" gridSize="9" guides="1" tooltips="1" connect="1" arrows="1" fold="1" page="1" pageScale="1" pageWidth="2336" pageHeight="1654" math="0" shadow="0">
      <root>
        <mxCell id="0" />
        <mxCell id="1" parent="0" />
        <mxCell id="RBaMOkIgLpyRy6kvrCgJ-1" value="chapters" style="shape=table;startSize=30;container=1;collapsible=0;childLayout=tableLayout;fillColor=#1ba1e2;fontColor=#ffffff;strokeColor=#006EAF;rounded=1;" parent="1" vertex="1">
          <mxGeometry x="729" y="-3087" width="225" height="237" as="geometry" />
        </mxCell>
        <mxCell id="RBaMOkIgLpyRy6kvrCgJ-2" value="" style="shape=tableRow;horizontal=0;startSize=0;swimlaneHead=0;swimlaneBody=0;strokeColor=inherit;top=0;left=0;bottom=0;right=0;collapsible=0;dropTarget=0;fillColor=none;points=[[0,0.5],[1,0.5]];portConstraint=eastwest;rounded=1;" parent="RBaMOkIgLpyRy6kvrCgJ-1" vertex="1">
          <mxGeometry y="30" width="225" height="42" as="geometry" />
        </mxCell>
        <mxCell id="RBaMOkIgLpyRy6kvrCgJ-3" value="PK" style="shape=partialRectangle;html=1;whiteSpace=wrap;connectable=0;strokeColor=inherit;overflow=hidden;fillColor=none;top=0;left=0;bottom=0;right=0;pointerEvents=1;rounded=1;" parent="RBaMOkIgLpyRy6kvrCgJ-2" vertex="1">
          <mxGeometry width="52" height="42" as="geometry">
            <mxRectangle width="52" height="42" as="alternateBounds" />
          </mxGeometry>
        </mxCell>
        <mxCell id="RBaMOkIgLpyRy6kvrCgJ-4" value="id" style="shape=partialRectangle;html=1;whiteSpace=wrap;connectable=0;strokeColor=inherit;overflow=hidden;fillColor=none;top=0;left=0;bottom=0;right=0;pointerEvents=1;rounded=1;" parent="RBaMOkIgLpyRy6kvrCgJ-2" vertex="1">
          <mxGeometry x="52" width="98" height="42" as="geometry">
            <mxRectangle width="98" height="42" as="alternateBounds" />
          </mxGeometry>
        </mxCell>
        <mxCell id="RBaMOkIgLpyRy6kvrCgJ-5" value="integer" style="shape=partialRectangle;html=1;whiteSpace=wrap;connectable=0;strokeColor=inherit;overflow=hidden;fillColor=none;top=0;left=0;bottom=0;right=0;pointerEvents=1;rounded=1;" parent="RBaMOkIgLpyRy6kvrCgJ-2" vertex="1">
          <mxGeometry x="150" width="75" height="42" as="geometry">
            <mxRectangle width="75" height="42" as="alternateBounds" />
          </mxGeometry>
        </mxCell>
        <mxCell id="joHTLbh7ZJ6akPKCv1DX-5" value="" style="shape=tableRow;horizontal=0;startSize=0;swimlaneHead=0;swimlaneBody=0;strokeColor=inherit;top=0;left=0;bottom=0;right=0;collapsible=0;dropTarget=0;fillColor=none;points=[[0,0.5],[1,0.5]];portConstraint=eastwest;rounded=1;" parent="RBaMOkIgLpyRy6kvrCgJ-1" vertex="1">
          <mxGeometry y="72" width="225" height="42" as="geometry" />
        </mxCell>
        <mxCell id="joHTLbh7ZJ6akPKCv1DX-6" value="FK" style="shape=partialRectangle;html=1;whiteSpace=wrap;connectable=0;strokeColor=inherit;overflow=hidden;fillColor=none;top=0;left=0;bottom=0;right=0;pointerEvents=1;rounded=1;" parent="joHTLbh7ZJ6akPKCv1DX-5" vertex="1">
          <mxGeometry width="52" height="42" as="geometry">
            <mxRectangle width="52" height="42" as="alternateBounds" />
          </mxGeometry>
        </mxCell>
        <mxCell id="joHTLbh7ZJ6akPKCv1DX-7" value="subject_id" style="shape=partialRectangle;html=1;whiteSpace=wrap;connectable=0;strokeColor=inherit;overflow=hidden;fillColor=none;top=0;left=0;bottom=0;right=0;pointerEvents=1;rounded=1;" parent="joHTLbh7ZJ6akPKCv1DX-5" vertex="1">
          <mxGeometry x="52" width="98" height="42" as="geometry">
            <mxRectangle width="98" height="42" as="alternateBounds" />
          </mxGeometry>
        </mxCell>
        <mxCell id="joHTLbh7ZJ6akPKCv1DX-8" value="integer" style="shape=partialRectangle;html=1;whiteSpace=wrap;connectable=0;strokeColor=inherit;overflow=hidden;fillColor=none;top=0;left=0;bottom=0;right=0;pointerEvents=1;rounded=1;" parent="joHTLbh7ZJ6akPKCv1DX-5" vertex="1">
          <mxGeometry x="150" width="75" height="42" as="geometry">
            <mxRectangle width="75" height="42" as="alternateBounds" />
          </mxGeometry>
        </mxCell>
        <mxCell id="RBaMOkIgLpyRy6kvrCgJ-6" value="" style="shape=tableRow;horizontal=0;startSize=0;swimlaneHead=0;swimlaneBody=0;strokeColor=inherit;top=0;left=0;bottom=0;right=0;collapsible=0;dropTarget=0;fillColor=none;points=[[0,0.5],[1,0.5]];portConstraint=eastwest;rounded=1;" parent="RBaMOkIgLpyRy6kvrCgJ-1" vertex="1">
          <mxGeometry y="114" width="225" height="41" as="geometry" />
        </mxCell>
        <mxCell id="RBaMOkIgLpyRy6kvrCgJ-7" value="" style="shape=partialRectangle;html=1;whiteSpace=wrap;connectable=0;strokeColor=inherit;overflow=hidden;fillColor=none;top=0;left=0;bottom=0;right=0;pointerEvents=1;rounded=1;" parent="RBaMOkIgLpyRy6kvrCgJ-6" vertex="1">
          <mxGeometry width="52" height="41" as="geometry">
            <mxRectangle width="52" height="41" as="alternateBounds" />
          </mxGeometry>
        </mxCell>
        <mxCell id="RBaMOkIgLpyRy6kvrCgJ-8" value="name" style="shape=partialRectangle;html=1;whiteSpace=wrap;connectable=0;strokeColor=inherit;overflow=hidden;fillColor=none;top=0;left=0;bottom=0;right=0;pointerEvents=1;rounded=1;" parent="RBaMOkIgLpyRy6kvrCgJ-6" vertex="1">
          <mxGeometry x="52" width="98" height="41" as="geometry">
            <mxRectangle width="98" height="41" as="alternateBounds" />
          </mxGeometry>
        </mxCell>
        <mxCell id="RBaMOkIgLpyRy6kvrCgJ-9" value="varchar" style="shape=partialRectangle;html=1;whiteSpace=wrap;connectable=0;strokeColor=inherit;overflow=hidden;fillColor=none;top=0;left=0;bottom=0;right=0;pointerEvents=1;rounded=1;" parent="RBaMOkIgLpyRy6kvrCgJ-6" vertex="1">
          <mxGeometry x="150" width="75" height="41" as="geometry">
            <mxRectangle width="75" height="41" as="alternateBounds" />
          </mxGeometry>
        </mxCell>
        <mxCell id="QFqRxKd3lIJnf6dlvBkB-1" value="" style="shape=tableRow;horizontal=0;startSize=0;swimlaneHead=0;swimlaneBody=0;strokeColor=inherit;top=0;left=0;bottom=0;right=0;collapsible=0;dropTarget=0;fillColor=none;points=[[0,0.5],[1,0.5]];portConstraint=eastwest;rounded=1;" parent="RBaMOkIgLpyRy6kvrCgJ-1" vertex="1">
          <mxGeometry y="155" width="225" height="41" as="geometry" />
        </mxCell>
        <mxCell id="QFqRxKd3lIJnf6dlvBkB-2" value="" style="shape=partialRectangle;html=1;whiteSpace=wrap;connectable=0;strokeColor=inherit;overflow=hidden;fillColor=none;top=0;left=0;bottom=0;right=0;pointerEvents=1;rounded=1;" parent="QFqRxKd3lIJnf6dlvBkB-1" vertex="1">
          <mxGeometry width="52" height="41" as="geometry">
            <mxRectangle width="52" height="41" as="alternateBounds" />
          </mxGeometry>
        </mxCell>
        <mxCell id="QFqRxKd3lIJnf6dlvBkB-3" value="no_questions" style="shape=partialRectangle;html=1;whiteSpace=wrap;connectable=0;strokeColor=inherit;overflow=hidden;fillColor=none;top=0;left=0;bottom=0;right=0;pointerEvents=1;rounded=1;" parent="QFqRxKd3lIJnf6dlvBkB-1" vertex="1">
          <mxGeometry x="52" width="98" height="41" as="geometry">
            <mxRectangle width="98" height="41" as="alternateBounds" />
          </mxGeometry>
        </mxCell>
        <mxCell id="QFqRxKd3lIJnf6dlvBkB-4" value="integer" style="shape=partialRectangle;html=1;whiteSpace=wrap;connectable=0;strokeColor=inherit;overflow=hidden;fillColor=none;top=0;left=0;bottom=0;right=0;pointerEvents=1;rounded=1;" parent="QFqRxKd3lIJnf6dlvBkB-1" vertex="1">
          <mxGeometry x="150" width="75" height="41" as="geometry">
            <mxRectangle width="75" height="41" as="alternateBounds" />
          </mxGeometry>
        </mxCell>
        <mxCell id="RBaMOkIgLpyRy6kvrCgJ-10" value="" style="shape=tableRow;horizontal=0;startSize=0;swimlaneHead=0;swimlaneBody=0;strokeColor=inherit;top=0;left=0;bottom=0;right=0;collapsible=0;dropTarget=0;fillColor=none;points=[[0,0.5],[1,0.5]];portConstraint=eastwest;rounded=1;" parent="RBaMOkIgLpyRy6kvrCgJ-1" vertex="1">
          <mxGeometry y="196" width="225" height="41" as="geometry" />
        </mxCell>
        <mxCell id="RBaMOkIgLpyRy6kvrCgJ-11" value="" style="shape=partialRectangle;html=1;whiteSpace=wrap;connectable=0;strokeColor=inherit;overflow=hidden;fillColor=none;top=0;left=0;bottom=0;right=0;pointerEvents=1;rounded=1;" parent="RBaMOkIgLpyRy6kvrCgJ-10" vertex="1">
          <mxGeometry width="52" height="41" as="geometry">
            <mxRectangle width="52" height="41" as="alternateBounds" />
          </mxGeometry>
        </mxCell>
        <mxCell id="RBaMOkIgLpyRy6kvrCgJ-12" value="description" style="shape=partialRectangle;html=1;whiteSpace=wrap;connectable=0;strokeColor=inherit;overflow=hidden;fillColor=none;top=0;left=0;bottom=0;right=0;pointerEvents=1;rounded=1;" parent="RBaMOkIgLpyRy6kvrCgJ-10" vertex="1">
          <mxGeometry x="52" width="98" height="41" as="geometry">
            <mxRectangle width="98" height="41" as="alternateBounds" />
          </mxGeometry>
        </mxCell>
        <mxCell id="RBaMOkIgLpyRy6kvrCgJ-13" value="varchar" style="shape=partialRectangle;html=1;whiteSpace=wrap;connectable=0;strokeColor=inherit;overflow=hidden;fillColor=none;top=0;left=0;bottom=0;right=0;pointerEvents=1;rounded=1;" parent="RBaMOkIgLpyRy6kvrCgJ-10" vertex="1">
          <mxGeometry x="150" width="75" height="41" as="geometry">
            <mxRectangle width="75" height="41" as="alternateBounds" />
          </mxGeometry>
        </mxCell>
        <mxCell id="4AwkM5pFyy2ay1YGQavB-1" value="subjects" style="shape=table;startSize=30;container=1;collapsible=0;childLayout=tableLayout;fillColor=#0050ef;fontColor=#ffffff;strokeColor=#001DBC;rounded=1;" parent="1" vertex="1">
          <mxGeometry x="1017" y="-3015" width="225" height="153" as="geometry" />
        </mxCell>
        <mxCell id="4AwkM5pFyy2ay1YGQavB-2" value="" style="shape=tableRow;horizontal=0;startSize=0;swimlaneHead=0;swimlaneBody=0;strokeColor=inherit;top=0;left=0;bottom=0;right=0;collapsible=0;dropTarget=0;fillColor=none;points=[[0,0.5],[1,0.5]];portConstraint=eastwest;rounded=1;" parent="4AwkM5pFyy2ay1YGQavB-1" vertex="1">
          <mxGeometry y="30" width="225" height="41" as="geometry" />
        </mxCell>
        <mxCell id="4AwkM5pFyy2ay1YGQavB-3" value="PK" style="shape=partialRectangle;html=1;whiteSpace=wrap;connectable=0;strokeColor=inherit;overflow=hidden;fillColor=none;top=0;left=0;bottom=0;right=0;pointerEvents=1;rounded=1;" parent="4AwkM5pFyy2ay1YGQavB-2" vertex="1">
          <mxGeometry width="52" height="41" as="geometry">
            <mxRectangle width="52" height="41" as="alternateBounds" />
          </mxGeometry>
        </mxCell>
        <mxCell id="4AwkM5pFyy2ay1YGQavB-4" value="id" style="shape=partialRectangle;html=1;whiteSpace=wrap;connectable=0;strokeColor=inherit;overflow=hidden;fillColor=none;top=0;left=0;bottom=0;right=0;pointerEvents=1;rounded=1;" parent="4AwkM5pFyy2ay1YGQavB-2" vertex="1">
          <mxGeometry x="52" width="98" height="41" as="geometry">
            <mxRectangle width="98" height="41" as="alternateBounds" />
          </mxGeometry>
        </mxCell>
        <mxCell id="4AwkM5pFyy2ay1YGQavB-5" value="integer" style="shape=partialRectangle;html=1;whiteSpace=wrap;connectable=0;strokeColor=inherit;overflow=hidden;fillColor=none;top=0;left=0;bottom=0;right=0;pointerEvents=1;rounded=1;" parent="4AwkM5pFyy2ay1YGQavB-2" vertex="1">
          <mxGeometry x="150" width="75" height="41" as="geometry">
            <mxRectangle width="75" height="41" as="alternateBounds" />
          </mxGeometry>
        </mxCell>
        <mxCell id="4AwkM5pFyy2ay1YGQavB-6" value="" style="shape=tableRow;horizontal=0;startSize=0;swimlaneHead=0;swimlaneBody=0;strokeColor=inherit;top=0;left=0;bottom=0;right=0;collapsible=0;dropTarget=0;fillColor=none;points=[[0,0.5],[1,0.5]];portConstraint=eastwest;rounded=1;" parent="4AwkM5pFyy2ay1YGQavB-1" vertex="1">
          <mxGeometry y="71" width="225" height="41" as="geometry" />
        </mxCell>
        <mxCell id="4AwkM5pFyy2ay1YGQavB-7" value="" style="shape=partialRectangle;html=1;whiteSpace=wrap;connectable=0;strokeColor=inherit;overflow=hidden;fillColor=none;top=0;left=0;bottom=0;right=0;pointerEvents=1;rounded=1;" parent="4AwkM5pFyy2ay1YGQavB-6" vertex="1">
          <mxGeometry width="52" height="41" as="geometry">
            <mxRectangle width="52" height="41" as="alternateBounds" />
          </mxGeometry>
        </mxCell>
        <mxCell id="4AwkM5pFyy2ay1YGQavB-8" value="name" style="shape=partialRectangle;html=1;whiteSpace=wrap;connectable=0;strokeColor=inherit;overflow=hidden;fillColor=none;top=0;left=0;bottom=0;right=0;pointerEvents=1;rounded=1;" parent="4AwkM5pFyy2ay1YGQavB-6" vertex="1">
          <mxGeometry x="52" width="98" height="41" as="geometry">
            <mxRectangle width="98" height="41" as="alternateBounds" />
          </mxGeometry>
        </mxCell>
        <mxCell id="4AwkM5pFyy2ay1YGQavB-9" value="varchar" style="shape=partialRectangle;html=1;whiteSpace=wrap;connectable=0;strokeColor=inherit;overflow=hidden;fillColor=none;top=0;left=0;bottom=0;right=0;pointerEvents=1;rounded=1;" parent="4AwkM5pFyy2ay1YGQavB-6" vertex="1">
          <mxGeometry x="150" width="75" height="41" as="geometry">
            <mxRectangle width="75" height="41" as="alternateBounds" />
          </mxGeometry>
        </mxCell>
        <mxCell id="4AwkM5pFyy2ay1YGQavB-10" value="" style="shape=tableRow;horizontal=0;startSize=0;swimlaneHead=0;swimlaneBody=0;strokeColor=inherit;top=0;left=0;bottom=0;right=0;collapsible=0;dropTarget=0;fillColor=none;points=[[0,0.5],[1,0.5]];portConstraint=eastwest;rounded=1;" parent="4AwkM5pFyy2ay1YGQavB-1" vertex="1">
          <mxGeometry y="112" width="225" height="41" as="geometry" />
        </mxCell>
        <mxCell id="4AwkM5pFyy2ay1YGQavB-11" value="" style="shape=partialRectangle;html=1;whiteSpace=wrap;connectable=0;strokeColor=inherit;overflow=hidden;fillColor=none;top=0;left=0;bottom=0;right=0;pointerEvents=1;rounded=1;" parent="4AwkM5pFyy2ay1YGQavB-10" vertex="1">
          <mxGeometry width="52" height="41" as="geometry">
            <mxRectangle width="52" height="41" as="alternateBounds" />
          </mxGeometry>
        </mxCell>
        <mxCell id="4AwkM5pFyy2ay1YGQavB-12" value="description" style="shape=partialRectangle;html=1;whiteSpace=wrap;connectable=0;strokeColor=inherit;overflow=hidden;fillColor=none;top=0;left=0;bottom=0;right=0;pointerEvents=1;rounded=1;" parent="4AwkM5pFyy2ay1YGQavB-10" vertex="1">
          <mxGeometry x="52" width="98" height="41" as="geometry">
            <mxRectangle width="98" height="41" as="alternateBounds" />
          </mxGeometry>
        </mxCell>
        <mxCell id="4AwkM5pFyy2ay1YGQavB-13" value="varchar" style="shape=partialRectangle;html=1;whiteSpace=wrap;connectable=0;strokeColor=inherit;overflow=hidden;fillColor=none;top=0;left=0;bottom=0;right=0;pointerEvents=1;rounded=1;" parent="4AwkM5pFyy2ay1YGQavB-10" vertex="1">
          <mxGeometry x="150" width="75" height="41" as="geometry">
            <mxRectangle width="75" height="41" as="alternateBounds" />
          </mxGeometry>
        </mxCell>
        <mxCell id="7NI1lbrBGVPZRddGkyEE-1" value="quiz" style="shape=table;startSize=30;container=1;collapsible=0;childLayout=tableLayout;fillColor=#6a00ff;fontColor=#ffffff;strokeColor=#3700CC;rounded=1;" parent="1" vertex="1">
          <mxGeometry x="918" y="-2826" width="236" height="317" as="geometry" />
        </mxCell>
        <mxCell id="7NI1lbrBGVPZRddGkyEE-2" value="" style="shape=tableRow;horizontal=0;startSize=0;swimlaneHead=0;swimlaneBody=0;strokeColor=inherit;top=0;left=0;bottom=0;right=0;collapsible=0;dropTarget=0;fillColor=none;points=[[0,0.5],[1,0.5]];portConstraint=eastwest;rounded=1;" parent="7NI1lbrBGVPZRddGkyEE-1" vertex="1">
          <mxGeometry y="30" width="236" height="41" as="geometry" />
        </mxCell>
        <mxCell id="7NI1lbrBGVPZRddGkyEE-3" value="PK" style="shape=partialRectangle;html=1;whiteSpace=wrap;connectable=0;strokeColor=inherit;overflow=hidden;fillColor=none;top=0;left=0;bottom=0;right=0;pointerEvents=1;rounded=1;" parent="7NI1lbrBGVPZRddGkyEE-2" vertex="1">
          <mxGeometry width="56" height="41" as="geometry">
            <mxRectangle width="56" height="41" as="alternateBounds" />
          </mxGeometry>
        </mxCell>
        <mxCell id="7NI1lbrBGVPZRddGkyEE-4" value="id" style="shape=partialRectangle;html=1;whiteSpace=wrap;connectable=0;strokeColor=inherit;overflow=hidden;fillColor=none;top=0;left=0;bottom=0;right=0;pointerEvents=1;rounded=1;" parent="7NI1lbrBGVPZRddGkyEE-2" vertex="1">
          <mxGeometry x="56" width="117" height="41" as="geometry">
            <mxRectangle width="117" height="41" as="alternateBounds" />
          </mxGeometry>
        </mxCell>
        <mxCell id="7NI1lbrBGVPZRddGkyEE-5" value="integer" style="shape=partialRectangle;html=1;whiteSpace=wrap;connectable=0;strokeColor=inherit;overflow=hidden;fillColor=none;top=0;left=0;bottom=0;right=0;pointerEvents=1;rounded=1;" parent="7NI1lbrBGVPZRddGkyEE-2" vertex="1">
          <mxGeometry x="173" width="63" height="41" as="geometry">
            <mxRectangle width="63" height="41" as="alternateBounds" />
          </mxGeometry>
        </mxCell>
        <mxCell id="6c2Jiv0W2mpwmCExSUAj-1" value="" style="shape=tableRow;horizontal=0;startSize=0;swimlaneHead=0;swimlaneBody=0;strokeColor=inherit;top=0;left=0;bottom=0;right=0;collapsible=0;dropTarget=0;fillColor=none;points=[[0,0.5],[1,0.5]];portConstraint=eastwest;rounded=1;" parent="7NI1lbrBGVPZRddGkyEE-1" vertex="1">
          <mxGeometry y="71" width="236" height="41" as="geometry" />
        </mxCell>
        <mxCell id="6c2Jiv0W2mpwmCExSUAj-2" value="FK" style="shape=partialRectangle;html=1;whiteSpace=wrap;connectable=0;strokeColor=inherit;overflow=hidden;fillColor=none;top=0;left=0;bottom=0;right=0;pointerEvents=1;rounded=1;" parent="6c2Jiv0W2mpwmCExSUAj-1" vertex="1">
          <mxGeometry width="56" height="41" as="geometry">
            <mxRectangle width="56" height="41" as="alternateBounds" />
          </mxGeometry>
        </mxCell>
        <mxCell id="6c2Jiv0W2mpwmCExSUAj-3" value="subject_id" style="shape=partialRectangle;html=1;whiteSpace=wrap;connectable=0;strokeColor=inherit;overflow=hidden;fillColor=none;top=0;left=0;bottom=0;right=0;pointerEvents=1;rounded=1;" parent="6c2Jiv0W2mpwmCExSUAj-1" vertex="1">
          <mxGeometry x="56" width="117" height="41" as="geometry">
            <mxRectangle width="117" height="41" as="alternateBounds" />
          </mxGeometry>
        </mxCell>
        <mxCell id="6c2Jiv0W2mpwmCExSUAj-4" value="integer" style="shape=partialRectangle;html=1;whiteSpace=wrap;connectable=0;strokeColor=inherit;overflow=hidden;fillColor=none;top=0;left=0;bottom=0;right=0;pointerEvents=1;rounded=1;" parent="6c2Jiv0W2mpwmCExSUAj-1" vertex="1">
          <mxGeometry x="173" width="63" height="41" as="geometry">
            <mxRectangle width="63" height="41" as="alternateBounds" />
          </mxGeometry>
        </mxCell>
        <mxCell id="CO7tSnQwh3wxn1dW0D_2-1" value="" style="shape=tableRow;horizontal=0;startSize=0;swimlaneHead=0;swimlaneBody=0;strokeColor=inherit;top=0;left=0;bottom=0;right=0;collapsible=0;dropTarget=0;fillColor=none;points=[[0,0.5],[1,0.5]];portConstraint=eastwest;rounded=1;" parent="7NI1lbrBGVPZRddGkyEE-1" vertex="1">
          <mxGeometry y="112" width="236" height="41" as="geometry" />
        </mxCell>
        <mxCell id="CO7tSnQwh3wxn1dW0D_2-2" value="FK" style="shape=partialRectangle;html=1;whiteSpace=wrap;connectable=0;strokeColor=inherit;overflow=hidden;fillColor=none;top=0;left=0;bottom=0;right=0;pointerEvents=1;rounded=1;" parent="CO7tSnQwh3wxn1dW0D_2-1" vertex="1">
          <mxGeometry width="56" height="41" as="geometry">
            <mxRectangle width="56" height="41" as="alternateBounds" />
          </mxGeometry>
        </mxCell>
        <mxCell id="CO7tSnQwh3wxn1dW0D_2-3" value="chapter_id" style="shape=partialRectangle;html=1;whiteSpace=wrap;connectable=0;strokeColor=inherit;overflow=hidden;fillColor=none;top=0;left=0;bottom=0;right=0;pointerEvents=1;rounded=1;" parent="CO7tSnQwh3wxn1dW0D_2-1" vertex="1">
          <mxGeometry x="56" width="117" height="41" as="geometry">
            <mxRectangle width="117" height="41" as="alternateBounds" />
          </mxGeometry>
        </mxCell>
        <mxCell id="CO7tSnQwh3wxn1dW0D_2-4" value="integer" style="shape=partialRectangle;html=1;whiteSpace=wrap;connectable=0;strokeColor=inherit;overflow=hidden;fillColor=none;top=0;left=0;bottom=0;right=0;pointerEvents=1;rounded=1;" parent="CO7tSnQwh3wxn1dW0D_2-1" vertex="1">
          <mxGeometry x="173" width="63" height="41" as="geometry">
            <mxRectangle width="63" height="41" as="alternateBounds" />
          </mxGeometry>
        </mxCell>
        <mxCell id="7NI1lbrBGVPZRddGkyEE-10" value="" style="shape=tableRow;horizontal=0;startSize=0;swimlaneHead=0;swimlaneBody=0;strokeColor=inherit;top=0;left=0;bottom=0;right=0;collapsible=0;dropTarget=0;fillColor=none;points=[[0,0.5],[1,0.5]];portConstraint=eastwest;rounded=1;" parent="7NI1lbrBGVPZRddGkyEE-1" vertex="1">
          <mxGeometry y="153" width="236" height="41" as="geometry" />
        </mxCell>
        <mxCell id="7NI1lbrBGVPZRddGkyEE-11" value="" style="shape=partialRectangle;html=1;whiteSpace=wrap;connectable=0;strokeColor=inherit;overflow=hidden;fillColor=none;top=0;left=0;bottom=0;right=0;pointerEvents=1;rounded=1;" parent="7NI1lbrBGVPZRddGkyEE-10" vertex="1">
          <mxGeometry width="56" height="41" as="geometry">
            <mxRectangle width="56" height="41" as="alternateBounds" />
          </mxGeometry>
        </mxCell>
        <mxCell id="7NI1lbrBGVPZRddGkyEE-12" value="date_of_quiz" style="shape=partialRectangle;html=1;whiteSpace=wrap;connectable=0;strokeColor=inherit;overflow=hidden;fillColor=none;top=0;left=0;bottom=0;right=0;pointerEvents=1;rounded=1;" parent="7NI1lbrBGVPZRddGkyEE-10" vertex="1">
          <mxGeometry x="56" width="117" height="41" as="geometry">
            <mxRectangle width="117" height="41" as="alternateBounds" />
          </mxGeometry>
        </mxCell>
        <mxCell id="7NI1lbrBGVPZRddGkyEE-13" value="date" style="shape=partialRectangle;html=1;whiteSpace=wrap;connectable=0;strokeColor=inherit;overflow=hidden;fillColor=none;top=0;left=0;bottom=0;right=0;pointerEvents=1;rounded=1;" parent="7NI1lbrBGVPZRddGkyEE-10" vertex="1">
          <mxGeometry x="173" width="63" height="41" as="geometry">
            <mxRectangle width="63" height="41" as="alternateBounds" />
          </mxGeometry>
        </mxCell>
        <mxCell id="7NI1lbrBGVPZRddGkyEE-14" value="" style="shape=tableRow;horizontal=0;startSize=0;swimlaneHead=0;swimlaneBody=0;strokeColor=inherit;top=0;left=0;bottom=0;right=0;collapsible=0;dropTarget=0;fillColor=none;points=[[0,0.5],[1,0.5]];portConstraint=eastwest;rounded=1;" parent="7NI1lbrBGVPZRddGkyEE-1" vertex="1">
          <mxGeometry y="194" width="236" height="41" as="geometry" />
        </mxCell>
        <mxCell id="7NI1lbrBGVPZRddGkyEE-15" value="" style="shape=partialRectangle;html=1;whiteSpace=wrap;connectable=0;strokeColor=inherit;overflow=hidden;fillColor=none;top=0;left=0;bottom=0;right=0;pointerEvents=1;rounded=1;" parent="7NI1lbrBGVPZRddGkyEE-14" vertex="1">
          <mxGeometry width="56" height="41" as="geometry">
            <mxRectangle width="56" height="41" as="alternateBounds" />
          </mxGeometry>
        </mxCell>
        <mxCell id="7NI1lbrBGVPZRddGkyEE-16" value="time_duration" style="shape=partialRectangle;html=1;whiteSpace=wrap;connectable=0;strokeColor=inherit;overflow=hidden;fillColor=none;top=0;left=0;bottom=0;right=0;pointerEvents=1;rounded=1;" parent="7NI1lbrBGVPZRddGkyEE-14" vertex="1">
          <mxGeometry x="56" width="117" height="41" as="geometry">
            <mxRectangle width="117" height="41" as="alternateBounds" />
          </mxGeometry>
        </mxCell>
        <mxCell id="7NI1lbrBGVPZRddGkyEE-17" value="time" style="shape=partialRectangle;html=1;whiteSpace=wrap;connectable=0;strokeColor=inherit;overflow=hidden;fillColor=none;top=0;left=0;bottom=0;right=0;pointerEvents=1;rounded=1;" parent="7NI1lbrBGVPZRddGkyEE-14" vertex="1">
          <mxGeometry x="173" width="63" height="41" as="geometry">
            <mxRectangle width="63" height="41" as="alternateBounds" />
          </mxGeometry>
        </mxCell>
        <mxCell id="FYtXV7jQA5JWHeIHGIVh-1" value="" style="shape=tableRow;horizontal=0;startSize=0;swimlaneHead=0;swimlaneBody=0;strokeColor=inherit;top=0;left=0;bottom=0;right=0;collapsible=0;dropTarget=0;fillColor=none;points=[[0,0.5],[1,0.5]];portConstraint=eastwest;rounded=1;" parent="7NI1lbrBGVPZRddGkyEE-1" vertex="1">
          <mxGeometry y="235" width="236" height="41" as="geometry" />
        </mxCell>
        <mxCell id="FYtXV7jQA5JWHeIHGIVh-2" value="" style="shape=partialRectangle;html=1;whiteSpace=wrap;connectable=0;strokeColor=inherit;overflow=hidden;fillColor=none;top=0;left=0;bottom=0;right=0;pointerEvents=1;rounded=1;" parent="FYtXV7jQA5JWHeIHGIVh-1" vertex="1">
          <mxGeometry width="56" height="41" as="geometry">
            <mxRectangle width="56" height="41" as="alternateBounds" />
          </mxGeometry>
        </mxCell>
        <mxCell id="FYtXV7jQA5JWHeIHGIVh-3" value="total_marks" style="shape=partialRectangle;html=1;whiteSpace=wrap;connectable=0;strokeColor=inherit;overflow=hidden;fillColor=none;top=0;left=0;bottom=0;right=0;pointerEvents=1;rounded=1;" parent="FYtXV7jQA5JWHeIHGIVh-1" vertex="1">
          <mxGeometry x="56" width="117" height="41" as="geometry">
            <mxRectangle width="117" height="41" as="alternateBounds" />
          </mxGeometry>
        </mxCell>
        <mxCell id="FYtXV7jQA5JWHeIHGIVh-4" value="integer" style="shape=partialRectangle;html=1;whiteSpace=wrap;connectable=0;strokeColor=inherit;overflow=hidden;fillColor=none;top=0;left=0;bottom=0;right=0;pointerEvents=1;rounded=1;" parent="FYtXV7jQA5JWHeIHGIVh-1" vertex="1">
          <mxGeometry x="173" width="63" height="41" as="geometry">
            <mxRectangle width="63" height="41" as="alternateBounds" />
          </mxGeometry>
        </mxCell>
        <mxCell id="niTpbavSG-oRUp3bgsar-6" value="" style="shape=tableRow;horizontal=0;startSize=0;swimlaneHead=0;swimlaneBody=0;strokeColor=inherit;top=0;left=0;bottom=0;right=0;collapsible=0;dropTarget=0;fillColor=none;points=[[0,0.5],[1,0.5]];portConstraint=eastwest;rounded=1;" parent="7NI1lbrBGVPZRddGkyEE-1" vertex="1">
          <mxGeometry y="276" width="236" height="41" as="geometry" />
        </mxCell>
        <mxCell id="niTpbavSG-oRUp3bgsar-7" value="" style="shape=partialRectangle;html=1;whiteSpace=wrap;connectable=0;strokeColor=inherit;overflow=hidden;fillColor=none;top=0;left=0;bottom=0;right=0;pointerEvents=1;rounded=1;" parent="niTpbavSG-oRUp3bgsar-6" vertex="1">
          <mxGeometry width="56" height="41" as="geometry">
            <mxRectangle width="56" height="41" as="alternateBounds" />
          </mxGeometry>
        </mxCell>
        <mxCell id="niTpbavSG-oRUp3bgsar-8" value="remarks" style="shape=partialRectangle;html=1;whiteSpace=wrap;connectable=0;strokeColor=inherit;overflow=hidden;fillColor=none;top=0;left=0;bottom=0;right=0;pointerEvents=1;rounded=1;" parent="niTpbavSG-oRUp3bgsar-6" vertex="1">
          <mxGeometry x="56" width="117" height="41" as="geometry">
            <mxRectangle width="117" height="41" as="alternateBounds" />
          </mxGeometry>
        </mxCell>
        <mxCell id="niTpbavSG-oRUp3bgsar-9" value="integer" style="shape=partialRectangle;html=1;whiteSpace=wrap;connectable=0;strokeColor=inherit;overflow=hidden;fillColor=none;top=0;left=0;bottom=0;right=0;pointerEvents=1;rounded=1;" parent="niTpbavSG-oRUp3bgsar-6" vertex="1">
          <mxGeometry x="173" width="63" height="41" as="geometry">
            <mxRectangle width="63" height="41" as="alternateBounds" />
          </mxGeometry>
        </mxCell>
        <mxCell id="niTpbavSG-oRUp3bgsar-10" value="questions" style="shape=table;startSize=30;container=1;collapsible=0;childLayout=tableLayout;fillColor=#e51400;strokeColor=#B20000;fontColor=#ffffff;rounded=1;" parent="1" vertex="1">
          <mxGeometry x="1215" y="-2628" width="252" height="317" as="geometry" />
        </mxCell>
        <mxCell id="niTpbavSG-oRUp3bgsar-11" value="" style="shape=tableRow;horizontal=0;startSize=0;swimlaneHead=0;swimlaneBody=0;strokeColor=inherit;top=0;left=0;bottom=0;right=0;collapsible=0;dropTarget=0;fillColor=none;points=[[0,0.5],[1,0.5]];portConstraint=eastwest;rounded=1;" parent="niTpbavSG-oRUp3bgsar-10" vertex="1">
          <mxGeometry y="30" width="252" height="41" as="geometry" />
        </mxCell>
        <mxCell id="niTpbavSG-oRUp3bgsar-12" value="PK" style="shape=partialRectangle;html=1;whiteSpace=wrap;connectable=0;strokeColor=inherit;overflow=hidden;fillColor=none;top=0;left=0;bottom=0;right=0;pointerEvents=1;rounded=1;" parent="niTpbavSG-oRUp3bgsar-11" vertex="1">
          <mxGeometry width="52" height="41" as="geometry">
            <mxRectangle width="52" height="41" as="alternateBounds" />
          </mxGeometry>
        </mxCell>
        <mxCell id="niTpbavSG-oRUp3bgsar-13" value="id" style="shape=partialRectangle;html=1;whiteSpace=wrap;connectable=0;strokeColor=inherit;overflow=hidden;fillColor=none;top=0;left=0;bottom=0;right=0;pointerEvents=1;rounded=1;" parent="niTpbavSG-oRUp3bgsar-11" vertex="1">
          <mxGeometry x="52" width="110" height="41" as="geometry">
            <mxRectangle width="110" height="41" as="alternateBounds" />
          </mxGeometry>
        </mxCell>
        <mxCell id="niTpbavSG-oRUp3bgsar-14" value="integer" style="shape=partialRectangle;html=1;whiteSpace=wrap;connectable=0;strokeColor=inherit;overflow=hidden;fillColor=none;top=0;left=0;bottom=0;right=0;pointerEvents=1;rounded=1;" parent="niTpbavSG-oRUp3bgsar-11" vertex="1">
          <mxGeometry x="162" width="90" height="41" as="geometry">
            <mxRectangle width="90" height="41" as="alternateBounds" />
          </mxGeometry>
        </mxCell>
        <mxCell id="niTpbavSG-oRUp3bgsar-15" value="" style="shape=tableRow;horizontal=0;startSize=0;swimlaneHead=0;swimlaneBody=0;strokeColor=inherit;top=0;left=0;bottom=0;right=0;collapsible=0;dropTarget=0;fillColor=none;points=[[0,0.5],[1,0.5]];portConstraint=eastwest;rounded=1;" parent="niTpbavSG-oRUp3bgsar-10" vertex="1">
          <mxGeometry y="71" width="252" height="41" as="geometry" />
        </mxCell>
        <mxCell id="niTpbavSG-oRUp3bgsar-16" value="FK" style="shape=partialRectangle;html=1;whiteSpace=wrap;connectable=0;strokeColor=inherit;overflow=hidden;fillColor=none;top=0;left=0;bottom=0;right=0;pointerEvents=1;rounded=1;" parent="niTpbavSG-oRUp3bgsar-15" vertex="1">
          <mxGeometry width="52" height="41" as="geometry">
            <mxRectangle width="52" height="41" as="alternateBounds" />
          </mxGeometry>
        </mxCell>
        <mxCell id="niTpbavSG-oRUp3bgsar-17" value="quiz_id" style="shape=partialRectangle;html=1;whiteSpace=wrap;connectable=0;strokeColor=inherit;overflow=hidden;fillColor=none;top=0;left=0;bottom=0;right=0;pointerEvents=1;rounded=1;" parent="niTpbavSG-oRUp3bgsar-15" vertex="1">
          <mxGeometry x="52" width="110" height="41" as="geometry">
            <mxRectangle width="110" height="41" as="alternateBounds" />
          </mxGeometry>
        </mxCell>
        <mxCell id="niTpbavSG-oRUp3bgsar-18" value="integer" style="shape=partialRectangle;html=1;whiteSpace=wrap;connectable=0;strokeColor=inherit;overflow=hidden;fillColor=none;top=0;left=0;bottom=0;right=0;pointerEvents=1;rounded=1;" parent="niTpbavSG-oRUp3bgsar-15" vertex="1">
          <mxGeometry x="162" width="90" height="41" as="geometry">
            <mxRectangle width="90" height="41" as="alternateBounds" />
          </mxGeometry>
        </mxCell>
        <mxCell id="deApMIEiUsOIZGpHYAAW-5" value="" style="shape=tableRow;horizontal=0;startSize=0;swimlaneHead=0;swimlaneBody=0;strokeColor=inherit;top=0;left=0;bottom=0;right=0;collapsible=0;dropTarget=0;fillColor=none;points=[[0,0.5],[1,0.5]];portConstraint=eastwest;rounded=1;" parent="niTpbavSG-oRUp3bgsar-10" vertex="1">
          <mxGeometry y="112" width="252" height="41" as="geometry" />
        </mxCell>
        <mxCell id="deApMIEiUsOIZGpHYAAW-6" value="" style="shape=partialRectangle;html=1;whiteSpace=wrap;connectable=0;strokeColor=inherit;overflow=hidden;fillColor=none;top=0;left=0;bottom=0;right=0;pointerEvents=1;rounded=1;" parent="deApMIEiUsOIZGpHYAAW-5" vertex="1">
          <mxGeometry width="52" height="41" as="geometry">
            <mxRectangle width="52" height="41" as="alternateBounds" />
          </mxGeometry>
        </mxCell>
        <mxCell id="deApMIEiUsOIZGpHYAAW-7" value="marks" style="shape=partialRectangle;html=1;whiteSpace=wrap;connectable=0;strokeColor=inherit;overflow=hidden;fillColor=none;top=0;left=0;bottom=0;right=0;pointerEvents=1;rounded=1;" parent="deApMIEiUsOIZGpHYAAW-5" vertex="1">
          <mxGeometry x="52" width="110" height="41" as="geometry">
            <mxRectangle width="110" height="41" as="alternateBounds" />
          </mxGeometry>
        </mxCell>
        <mxCell id="deApMIEiUsOIZGpHYAAW-8" value="integer" style="shape=partialRectangle;html=1;whiteSpace=wrap;connectable=0;strokeColor=inherit;overflow=hidden;fillColor=none;top=0;left=0;bottom=0;right=0;pointerEvents=1;rounded=1;" parent="deApMIEiUsOIZGpHYAAW-5" vertex="1">
          <mxGeometry x="162" width="90" height="41" as="geometry">
            <mxRectangle width="90" height="41" as="alternateBounds" />
          </mxGeometry>
        </mxCell>
        <mxCell id="cqkHMsCXGANgo0nWTnIa-1" value="" style="shape=tableRow;horizontal=0;startSize=0;swimlaneHead=0;swimlaneBody=0;strokeColor=inherit;top=0;left=0;bottom=0;right=0;collapsible=0;dropTarget=0;fillColor=none;points=[[0,0.5],[1,0.5]];portConstraint=eastwest;rounded=1;" parent="niTpbavSG-oRUp3bgsar-10" vertex="1">
          <mxGeometry y="153" width="252" height="41" as="geometry" />
        </mxCell>
        <mxCell id="cqkHMsCXGANgo0nWTnIa-2" value="" style="shape=partialRectangle;html=1;whiteSpace=wrap;connectable=0;strokeColor=inherit;overflow=hidden;fillColor=none;top=0;left=0;bottom=0;right=0;pointerEvents=1;rounded=1;" parent="cqkHMsCXGANgo0nWTnIa-1" vertex="1">
          <mxGeometry width="52" height="41" as="geometry">
            <mxRectangle width="52" height="41" as="alternateBounds" />
          </mxGeometry>
        </mxCell>
        <mxCell id="cqkHMsCXGANgo0nWTnIa-3" value="question_title" style="shape=partialRectangle;html=1;whiteSpace=wrap;connectable=0;strokeColor=inherit;overflow=hidden;fillColor=none;top=0;left=0;bottom=0;right=0;pointerEvents=1;rounded=1;" parent="cqkHMsCXGANgo0nWTnIa-1" vertex="1">
          <mxGeometry x="52" width="110" height="41" as="geometry">
            <mxRectangle width="110" height="41" as="alternateBounds" />
          </mxGeometry>
        </mxCell>
        <mxCell id="cqkHMsCXGANgo0nWTnIa-4" value="varchar" style="shape=partialRectangle;html=1;whiteSpace=wrap;connectable=0;strokeColor=inherit;overflow=hidden;fillColor=none;top=0;left=0;bottom=0;right=0;pointerEvents=1;rounded=1;" parent="cqkHMsCXGANgo0nWTnIa-1" vertex="1">
          <mxGeometry x="162" width="90" height="41" as="geometry">
            <mxRectangle width="90" height="41" as="alternateBounds" />
          </mxGeometry>
        </mxCell>
        <mxCell id="niTpbavSG-oRUp3bgsar-19" value="" style="shape=tableRow;horizontal=0;startSize=0;swimlaneHead=0;swimlaneBody=0;strokeColor=inherit;top=0;left=0;bottom=0;right=0;collapsible=0;dropTarget=0;fillColor=none;points=[[0,0.5],[1,0.5]];portConstraint=eastwest;rounded=1;" parent="niTpbavSG-oRUp3bgsar-10" vertex="1">
          <mxGeometry y="194" width="252" height="41" as="geometry" />
        </mxCell>
        <mxCell id="niTpbavSG-oRUp3bgsar-20" value="" style="shape=partialRectangle;html=1;whiteSpace=wrap;connectable=0;strokeColor=inherit;overflow=hidden;fillColor=none;top=0;left=0;bottom=0;right=0;pointerEvents=1;rounded=1;" parent="niTpbavSG-oRUp3bgsar-19" vertex="1">
          <mxGeometry width="52" height="41" as="geometry">
            <mxRectangle width="52" height="41" as="alternateBounds" />
          </mxGeometry>
        </mxCell>
        <mxCell id="niTpbavSG-oRUp3bgsar-21" value="question_statement" style="shape=partialRectangle;html=1;whiteSpace=wrap;connectable=0;strokeColor=inherit;overflow=hidden;fillColor=none;top=0;left=0;bottom=0;right=0;pointerEvents=1;rounded=1;" parent="niTpbavSG-oRUp3bgsar-19" vertex="1">
          <mxGeometry x="52" width="110" height="41" as="geometry">
            <mxRectangle width="110" height="41" as="alternateBounds" />
          </mxGeometry>
        </mxCell>
        <mxCell id="niTpbavSG-oRUp3bgsar-22" value="varchar" style="shape=partialRectangle;html=1;whiteSpace=wrap;connectable=0;strokeColor=inherit;overflow=hidden;fillColor=none;top=0;left=0;bottom=0;right=0;pointerEvents=1;rounded=1;" parent="niTpbavSG-oRUp3bgsar-19" vertex="1">
          <mxGeometry x="162" width="90" height="41" as="geometry">
            <mxRectangle width="90" height="41" as="alternateBounds" />
          </mxGeometry>
        </mxCell>
        <mxCell id="hIai2qdJ9qRFvLQZJg0G-1" value="" style="shape=tableRow;horizontal=0;startSize=0;swimlaneHead=0;swimlaneBody=0;strokeColor=inherit;top=0;left=0;bottom=0;right=0;collapsible=0;dropTarget=0;fillColor=none;points=[[0,0.5],[1,0.5]];portConstraint=eastwest;rounded=1;" parent="niTpbavSG-oRUp3bgsar-10" vertex="1">
          <mxGeometry y="235" width="252" height="41" as="geometry" />
        </mxCell>
        <mxCell id="hIai2qdJ9qRFvLQZJg0G-2" value="" style="shape=partialRectangle;html=1;whiteSpace=wrap;connectable=0;strokeColor=inherit;overflow=hidden;fillColor=none;top=0;left=0;bottom=0;right=0;pointerEvents=1;rounded=1;" parent="hIai2qdJ9qRFvLQZJg0G-1" vertex="1">
          <mxGeometry width="52" height="41" as="geometry">
            <mxRectangle width="52" height="41" as="alternateBounds" />
          </mxGeometry>
        </mxCell>
        <mxCell id="hIai2qdJ9qRFvLQZJg0G-3" value="question_type" style="shape=partialRectangle;html=1;whiteSpace=wrap;connectable=0;strokeColor=inherit;overflow=hidden;fillColor=none;top=0;left=0;bottom=0;right=0;pointerEvents=1;rounded=1;" parent="hIai2qdJ9qRFvLQZJg0G-1" vertex="1">
          <mxGeometry x="52" width="110" height="41" as="geometry">
            <mxRectangle width="110" height="41" as="alternateBounds" />
          </mxGeometry>
        </mxCell>
        <mxCell id="hIai2qdJ9qRFvLQZJg0G-4" value="varchar" style="shape=partialRectangle;html=1;whiteSpace=wrap;connectable=0;strokeColor=inherit;overflow=hidden;fillColor=none;top=0;left=0;bottom=0;right=0;pointerEvents=1;rounded=1;" parent="hIai2qdJ9qRFvLQZJg0G-1" vertex="1">
          <mxGeometry x="162" width="90" height="41" as="geometry">
            <mxRectangle width="90" height="41" as="alternateBounds" />
          </mxGeometry>
        </mxCell>
        <mxCell id="VpliHGxxb2n-eqNYnT2E-1" value="" style="shape=tableRow;horizontal=0;startSize=0;swimlaneHead=0;swimlaneBody=0;strokeColor=inherit;top=0;left=0;bottom=0;right=0;collapsible=0;dropTarget=0;fillColor=none;points=[[0,0.5],[1,0.5]];portConstraint=eastwest;rounded=1;" parent="niTpbavSG-oRUp3bgsar-10" vertex="1">
          <mxGeometry y="276" width="252" height="41" as="geometry" />
        </mxCell>
        <mxCell id="VpliHGxxb2n-eqNYnT2E-2" value="" style="shape=partialRectangle;html=1;whiteSpace=wrap;connectable=0;strokeColor=inherit;overflow=hidden;fillColor=none;top=0;left=0;bottom=0;right=0;pointerEvents=1;rounded=1;" parent="VpliHGxxb2n-eqNYnT2E-1" vertex="1">
          <mxGeometry width="52" height="41" as="geometry">
            <mxRectangle width="52" height="41" as="alternateBounds" />
          </mxGeometry>
        </mxCell>
        <mxCell id="VpliHGxxb2n-eqNYnT2E-3" value="correct_option" style="shape=partialRectangle;html=1;whiteSpace=wrap;connectable=0;strokeColor=inherit;overflow=hidden;fillColor=none;top=0;left=0;bottom=0;right=0;pointerEvents=1;rounded=1;" parent="VpliHGxxb2n-eqNYnT2E-1" vertex="1">
          <mxGeometry x="52" width="110" height="41" as="geometry">
            <mxRectangle width="110" height="41" as="alternateBounds" />
          </mxGeometry>
        </mxCell>
        <mxCell id="VpliHGxxb2n-eqNYnT2E-4" value="integer" style="shape=partialRectangle;html=1;whiteSpace=wrap;connectable=0;strokeColor=inherit;overflow=hidden;fillColor=none;top=0;left=0;bottom=0;right=0;pointerEvents=1;rounded=1;" parent="VpliHGxxb2n-eqNYnT2E-1" vertex="1">
          <mxGeometry x="162" width="90" height="41" as="geometry">
            <mxRectangle width="90" height="41" as="alternateBounds" />
          </mxGeometry>
        </mxCell>
        <mxCell id="CIiGBw8oDLtLS_8bqtnP-1" value="options" style="shape=table;startSize=30;container=1;collapsible=0;childLayout=tableLayout;fillColor=#d80073;strokeColor=#A50040;fontColor=#ffffff;rounded=1;" parent="1" vertex="1">
          <mxGeometry x="1305" y="-2925" width="252" height="194" as="geometry" />
        </mxCell>
        <mxCell id="CIiGBw8oDLtLS_8bqtnP-2" value="" style="shape=tableRow;horizontal=0;startSize=0;swimlaneHead=0;swimlaneBody=0;strokeColor=inherit;top=0;left=0;bottom=0;right=0;collapsible=0;dropTarget=0;fillColor=none;points=[[0,0.5],[1,0.5]];portConstraint=eastwest;rounded=1;" parent="CIiGBw8oDLtLS_8bqtnP-1" vertex="1">
          <mxGeometry y="30" width="252" height="41" as="geometry" />
        </mxCell>
        <mxCell id="CIiGBw8oDLtLS_8bqtnP-3" value="PK" style="shape=partialRectangle;html=1;whiteSpace=wrap;connectable=0;strokeColor=inherit;overflow=hidden;fillColor=none;top=0;left=0;bottom=0;right=0;pointerEvents=1;rounded=1;" parent="CIiGBw8oDLtLS_8bqtnP-2" vertex="1">
          <mxGeometry width="52" height="41" as="geometry">
            <mxRectangle width="52" height="41" as="alternateBounds" />
          </mxGeometry>
        </mxCell>
        <mxCell id="CIiGBw8oDLtLS_8bqtnP-4" value="id" style="shape=partialRectangle;html=1;whiteSpace=wrap;connectable=0;strokeColor=inherit;overflow=hidden;fillColor=none;top=0;left=0;bottom=0;right=0;pointerEvents=1;rounded=1;" parent="CIiGBw8oDLtLS_8bqtnP-2" vertex="1">
          <mxGeometry x="52" width="110" height="41" as="geometry">
            <mxRectangle width="110" height="41" as="alternateBounds" />
          </mxGeometry>
        </mxCell>
        <mxCell id="CIiGBw8oDLtLS_8bqtnP-5" value="integer" style="shape=partialRectangle;html=1;whiteSpace=wrap;connectable=0;strokeColor=inherit;overflow=hidden;fillColor=none;top=0;left=0;bottom=0;right=0;pointerEvents=1;rounded=1;" parent="CIiGBw8oDLtLS_8bqtnP-2" vertex="1">
          <mxGeometry x="162" width="90" height="41" as="geometry">
            <mxRectangle width="90" height="41" as="alternateBounds" />
          </mxGeometry>
        </mxCell>
        <mxCell id="CIiGBw8oDLtLS_8bqtnP-6" value="" style="shape=tableRow;horizontal=0;startSize=0;swimlaneHead=0;swimlaneBody=0;strokeColor=inherit;top=0;left=0;bottom=0;right=0;collapsible=0;dropTarget=0;fillColor=none;points=[[0,0.5],[1,0.5]];portConstraint=eastwest;rounded=1;" parent="CIiGBw8oDLtLS_8bqtnP-1" vertex="1">
          <mxGeometry y="71" width="252" height="41" as="geometry" />
        </mxCell>
        <mxCell id="CIiGBw8oDLtLS_8bqtnP-7" value="FK" style="shape=partialRectangle;html=1;whiteSpace=wrap;connectable=0;strokeColor=inherit;overflow=hidden;fillColor=none;top=0;left=0;bottom=0;right=0;pointerEvents=1;rounded=1;" parent="CIiGBw8oDLtLS_8bqtnP-6" vertex="1">
          <mxGeometry width="52" height="41" as="geometry">
            <mxRectangle width="52" height="41" as="alternateBounds" />
          </mxGeometry>
        </mxCell>
        <mxCell id="CIiGBw8oDLtLS_8bqtnP-8" value="question_id" style="shape=partialRectangle;html=1;whiteSpace=wrap;connectable=0;strokeColor=inherit;overflow=hidden;fillColor=none;top=0;left=0;bottom=0;right=0;pointerEvents=1;rounded=1;" parent="CIiGBw8oDLtLS_8bqtnP-6" vertex="1">
          <mxGeometry x="52" width="110" height="41" as="geometry">
            <mxRectangle width="110" height="41" as="alternateBounds" />
          </mxGeometry>
        </mxCell>
        <mxCell id="CIiGBw8oDLtLS_8bqtnP-9" value="integer" style="shape=partialRectangle;html=1;whiteSpace=wrap;connectable=0;strokeColor=inherit;overflow=hidden;fillColor=none;top=0;left=0;bottom=0;right=0;pointerEvents=1;rounded=1;" parent="CIiGBw8oDLtLS_8bqtnP-6" vertex="1">
          <mxGeometry x="162" width="90" height="41" as="geometry">
            <mxRectangle width="90" height="41" as="alternateBounds" />
          </mxGeometry>
        </mxCell>
        <mxCell id="CIiGBw8oDLtLS_8bqtnP-10" value="" style="shape=tableRow;horizontal=0;startSize=0;swimlaneHead=0;swimlaneBody=0;strokeColor=inherit;top=0;left=0;bottom=0;right=0;collapsible=0;dropTarget=0;fillColor=none;points=[[0,0.5],[1,0.5]];portConstraint=eastwest;rounded=1;" parent="CIiGBw8oDLtLS_8bqtnP-1" vertex="1">
          <mxGeometry y="112" width="252" height="41" as="geometry" />
        </mxCell>
        <mxCell id="CIiGBw8oDLtLS_8bqtnP-11" value="" style="shape=partialRectangle;html=1;whiteSpace=wrap;connectable=0;strokeColor=inherit;overflow=hidden;fillColor=none;top=0;left=0;bottom=0;right=0;pointerEvents=1;rounded=1;" parent="CIiGBw8oDLtLS_8bqtnP-10" vertex="1">
          <mxGeometry width="52" height="41" as="geometry">
            <mxRectangle width="52" height="41" as="alternateBounds" />
          </mxGeometry>
        </mxCell>
        <mxCell id="CIiGBw8oDLtLS_8bqtnP-12" value="option_no" style="shape=partialRectangle;html=1;whiteSpace=wrap;connectable=0;strokeColor=inherit;overflow=hidden;fillColor=none;top=0;left=0;bottom=0;right=0;pointerEvents=1;rounded=1;" parent="CIiGBw8oDLtLS_8bqtnP-10" vertex="1">
          <mxGeometry x="52" width="110" height="41" as="geometry">
            <mxRectangle width="110" height="41" as="alternateBounds" />
          </mxGeometry>
        </mxCell>
        <mxCell id="CIiGBw8oDLtLS_8bqtnP-13" value="integer" style="shape=partialRectangle;html=1;whiteSpace=wrap;connectable=0;strokeColor=inherit;overflow=hidden;fillColor=none;top=0;left=0;bottom=0;right=0;pointerEvents=1;rounded=1;" parent="CIiGBw8oDLtLS_8bqtnP-10" vertex="1">
          <mxGeometry x="162" width="90" height="41" as="geometry">
            <mxRectangle width="90" height="41" as="alternateBounds" />
          </mxGeometry>
        </mxCell>
        <mxCell id="deApMIEiUsOIZGpHYAAW-1" value="" style="shape=tableRow;horizontal=0;startSize=0;swimlaneHead=0;swimlaneBody=0;strokeColor=inherit;top=0;left=0;bottom=0;right=0;collapsible=0;dropTarget=0;fillColor=none;points=[[0,0.5],[1,0.5]];portConstraint=eastwest;rounded=1;" parent="CIiGBw8oDLtLS_8bqtnP-1" vertex="1">
          <mxGeometry y="153" width="252" height="41" as="geometry" />
        </mxCell>
        <mxCell id="deApMIEiUsOIZGpHYAAW-2" value="" style="shape=partialRectangle;html=1;whiteSpace=wrap;connectable=0;strokeColor=inherit;overflow=hidden;fillColor=none;top=0;left=0;bottom=0;right=0;pointerEvents=1;rounded=1;" parent="deApMIEiUsOIZGpHYAAW-1" vertex="1">
          <mxGeometry width="52" height="41" as="geometry">
            <mxRectangle width="52" height="41" as="alternateBounds" />
          </mxGeometry>
        </mxCell>
        <mxCell id="deApMIEiUsOIZGpHYAAW-3" value="option_statement" style="shape=partialRectangle;html=1;whiteSpace=wrap;connectable=0;strokeColor=inherit;overflow=hidden;fillColor=none;top=0;left=0;bottom=0;right=0;pointerEvents=1;rounded=1;" parent="deApMIEiUsOIZGpHYAAW-1" vertex="1">
          <mxGeometry x="52" width="110" height="41" as="geometry">
            <mxRectangle width="110" height="41" as="alternateBounds" />
          </mxGeometry>
        </mxCell>
        <mxCell id="deApMIEiUsOIZGpHYAAW-4" value="varchar" style="shape=partialRectangle;html=1;whiteSpace=wrap;connectable=0;strokeColor=inherit;overflow=hidden;fillColor=none;top=0;left=0;bottom=0;right=0;pointerEvents=1;rounded=1;" parent="deApMIEiUsOIZGpHYAAW-1" vertex="1">
          <mxGeometry x="162" width="90" height="41" as="geometry">
            <mxRectangle width="90" height="41" as="alternateBounds" />
          </mxGeometry>
        </mxCell>
        <mxCell id="_7aba9UNIp-G3qYeoXRk-1" value="scores" style="shape=table;startSize=30;container=1;collapsible=0;childLayout=tableLayout;fillColor=#f0a30a;fontColor=#000000;strokeColor=#BD7000;rounded=1;" parent="1" vertex="1">
          <mxGeometry x="534" y="-2669" width="279" height="399" as="geometry" />
        </mxCell>
        <mxCell id="_7aba9UNIp-G3qYeoXRk-2" value="" style="shape=tableRow;horizontal=0;startSize=0;swimlaneHead=0;swimlaneBody=0;strokeColor=inherit;top=0;left=0;bottom=0;right=0;collapsible=0;dropTarget=0;fillColor=none;points=[[0,0.5],[1,0.5]];portConstraint=eastwest;rounded=1;" parent="_7aba9UNIp-G3qYeoXRk-1" vertex="1">
          <mxGeometry y="30" width="279" height="41" as="geometry" />
        </mxCell>
        <mxCell id="_7aba9UNIp-G3qYeoXRk-3" value="PK" style="shape=partialRectangle;html=1;whiteSpace=wrap;connectable=0;strokeColor=inherit;overflow=hidden;fillColor=none;top=0;left=0;bottom=0;right=0;pointerEvents=1;rounded=1;" parent="_7aba9UNIp-G3qYeoXRk-2" vertex="1">
          <mxGeometry width="60" height="41" as="geometry">
            <mxRectangle width="60" height="41" as="alternateBounds" />
          </mxGeometry>
        </mxCell>
        <mxCell id="_7aba9UNIp-G3qYeoXRk-4" value="id" style="shape=partialRectangle;html=1;whiteSpace=wrap;connectable=0;strokeColor=inherit;overflow=hidden;fillColor=none;top=0;left=0;bottom=0;right=0;pointerEvents=1;rounded=1;" parent="_7aba9UNIp-G3qYeoXRk-2" vertex="1">
          <mxGeometry x="60" width="126" height="41" as="geometry">
            <mxRectangle width="126" height="41" as="alternateBounds" />
          </mxGeometry>
        </mxCell>
        <mxCell id="_7aba9UNIp-G3qYeoXRk-5" value="integer" style="shape=partialRectangle;html=1;whiteSpace=wrap;connectable=0;strokeColor=inherit;overflow=hidden;fillColor=none;top=0;left=0;bottom=0;right=0;pointerEvents=1;rounded=1;" parent="_7aba9UNIp-G3qYeoXRk-2" vertex="1">
          <mxGeometry x="186" width="93" height="41" as="geometry">
            <mxRectangle width="93" height="41" as="alternateBounds" />
          </mxGeometry>
        </mxCell>
        <mxCell id="_7aba9UNIp-G3qYeoXRk-6" value="" style="shape=tableRow;horizontal=0;startSize=0;swimlaneHead=0;swimlaneBody=0;strokeColor=inherit;top=0;left=0;bottom=0;right=0;collapsible=0;dropTarget=0;fillColor=none;points=[[0,0.5],[1,0.5]];portConstraint=eastwest;rounded=1;" parent="_7aba9UNIp-G3qYeoXRk-1" vertex="1">
          <mxGeometry y="71" width="279" height="41" as="geometry" />
        </mxCell>
        <mxCell id="_7aba9UNIp-G3qYeoXRk-7" value="FK" style="shape=partialRectangle;html=1;whiteSpace=wrap;connectable=0;strokeColor=inherit;overflow=hidden;fillColor=none;top=0;left=0;bottom=0;right=0;pointerEvents=1;rounded=1;" parent="_7aba9UNIp-G3qYeoXRk-6" vertex="1">
          <mxGeometry width="60" height="41" as="geometry">
            <mxRectangle width="60" height="41" as="alternateBounds" />
          </mxGeometry>
        </mxCell>
        <mxCell id="_7aba9UNIp-G3qYeoXRk-8" value="quiz_id" style="shape=partialRectangle;html=1;whiteSpace=wrap;connectable=0;strokeColor=inherit;overflow=hidden;fillColor=none;top=0;left=0;bottom=0;right=0;pointerEvents=1;rounded=1;" parent="_7aba9UNIp-G3qYeoXRk-6" vertex="1">
          <mxGeometry x="60" width="126" height="41" as="geometry">
            <mxRectangle width="126" height="41" as="alternateBounds" />
          </mxGeometry>
        </mxCell>
        <mxCell id="_7aba9UNIp-G3qYeoXRk-9" value="integer" style="shape=partialRectangle;html=1;whiteSpace=wrap;connectable=0;strokeColor=inherit;overflow=hidden;fillColor=none;top=0;left=0;bottom=0;right=0;pointerEvents=1;rounded=1;" parent="_7aba9UNIp-G3qYeoXRk-6" vertex="1">
          <mxGeometry x="186" width="93" height="41" as="geometry">
            <mxRectangle width="93" height="41" as="alternateBounds" />
          </mxGeometry>
        </mxCell>
        <mxCell id="_7aba9UNIp-G3qYeoXRk-10" value="" style="shape=tableRow;horizontal=0;startSize=0;swimlaneHead=0;swimlaneBody=0;strokeColor=inherit;top=0;left=0;bottom=0;right=0;collapsible=0;dropTarget=0;fillColor=none;points=[[0,0.5],[1,0.5]];portConstraint=eastwest;rounded=1;" parent="_7aba9UNIp-G3qYeoXRk-1" vertex="1">
          <mxGeometry y="112" width="279" height="41" as="geometry" />
        </mxCell>
        <mxCell id="_7aba9UNIp-G3qYeoXRk-11" value="FK" style="shape=partialRectangle;html=1;whiteSpace=wrap;connectable=0;strokeColor=inherit;overflow=hidden;fillColor=none;top=0;left=0;bottom=0;right=0;pointerEvents=1;rounded=1;" parent="_7aba9UNIp-G3qYeoXRk-10" vertex="1">
          <mxGeometry width="60" height="41" as="geometry">
            <mxRectangle width="60" height="41" as="alternateBounds" />
          </mxGeometry>
        </mxCell>
        <mxCell id="_7aba9UNIp-G3qYeoXRk-12" value="user_id" style="shape=partialRectangle;html=1;whiteSpace=wrap;connectable=0;strokeColor=inherit;overflow=hidden;fillColor=none;top=0;left=0;bottom=0;right=0;pointerEvents=1;rounded=1;" parent="_7aba9UNIp-G3qYeoXRk-10" vertex="1">
          <mxGeometry x="60" width="126" height="41" as="geometry">
            <mxRectangle width="126" height="41" as="alternateBounds" />
          </mxGeometry>
        </mxCell>
        <mxCell id="_7aba9UNIp-G3qYeoXRk-13" value="integer" style="shape=partialRectangle;html=1;whiteSpace=wrap;connectable=0;strokeColor=inherit;overflow=hidden;fillColor=none;top=0;left=0;bottom=0;right=0;pointerEvents=1;rounded=1;" parent="_7aba9UNIp-G3qYeoXRk-10" vertex="1">
          <mxGeometry x="186" width="93" height="41" as="geometry">
            <mxRectangle width="93" height="41" as="alternateBounds" />
          </mxGeometry>
        </mxCell>
        <mxCell id="bp29CIVGbb5XNxqfCRaT-1" value="" style="shape=tableRow;horizontal=0;startSize=0;swimlaneHead=0;swimlaneBody=0;strokeColor=inherit;top=0;left=0;bottom=0;right=0;collapsible=0;dropTarget=0;fillColor=none;points=[[0,0.5],[1,0.5]];portConstraint=eastwest;rounded=1;" parent="_7aba9UNIp-G3qYeoXRk-1" vertex="1">
          <mxGeometry y="153" width="279" height="41" as="geometry" />
        </mxCell>
        <mxCell id="bp29CIVGbb5XNxqfCRaT-2" value="" style="shape=partialRectangle;html=1;whiteSpace=wrap;connectable=0;strokeColor=inherit;overflow=hidden;fillColor=none;top=0;left=0;bottom=0;right=0;pointerEvents=1;rounded=1;" parent="bp29CIVGbb5XNxqfCRaT-1" vertex="1">
          <mxGeometry width="60" height="41" as="geometry">
            <mxRectangle width="60" height="41" as="alternateBounds" />
          </mxGeometry>
        </mxCell>
        <mxCell id="bp29CIVGbb5XNxqfCRaT-3" value="question_attempted" style="shape=partialRectangle;html=1;whiteSpace=wrap;connectable=0;strokeColor=inherit;overflow=hidden;fillColor=none;top=0;left=0;bottom=0;right=0;pointerEvents=1;rounded=1;" parent="bp29CIVGbb5XNxqfCRaT-1" vertex="1">
          <mxGeometry x="60" width="126" height="41" as="geometry">
            <mxRectangle width="126" height="41" as="alternateBounds" />
          </mxGeometry>
        </mxCell>
        <mxCell id="bp29CIVGbb5XNxqfCRaT-4" value="integer" style="shape=partialRectangle;html=1;whiteSpace=wrap;connectable=0;strokeColor=inherit;overflow=hidden;fillColor=none;top=0;left=0;bottom=0;right=0;pointerEvents=1;rounded=1;" parent="bp29CIVGbb5XNxqfCRaT-1" vertex="1">
          <mxGeometry x="186" width="93" height="41" as="geometry">
            <mxRectangle width="93" height="41" as="alternateBounds" />
          </mxGeometry>
        </mxCell>
        <mxCell id="bp29CIVGbb5XNxqfCRaT-5" value="" style="shape=tableRow;horizontal=0;startSize=0;swimlaneHead=0;swimlaneBody=0;strokeColor=inherit;top=0;left=0;bottom=0;right=0;collapsible=0;dropTarget=0;fillColor=none;points=[[0,0.5],[1,0.5]];portConstraint=eastwest;rounded=1;" parent="_7aba9UNIp-G3qYeoXRk-1" vertex="1">
          <mxGeometry y="194" width="279" height="41" as="geometry" />
        </mxCell>
        <mxCell id="bp29CIVGbb5XNxqfCRaT-6" value="" style="shape=partialRectangle;html=1;whiteSpace=wrap;connectable=0;strokeColor=inherit;overflow=hidden;fillColor=none;top=0;left=0;bottom=0;right=0;pointerEvents=1;rounded=1;" parent="bp29CIVGbb5XNxqfCRaT-5" vertex="1">
          <mxGeometry width="60" height="41" as="geometry">
            <mxRectangle width="60" height="41" as="alternateBounds" />
          </mxGeometry>
        </mxCell>
        <mxCell id="bp29CIVGbb5XNxqfCRaT-7" value="answered_correct" style="shape=partialRectangle;html=1;whiteSpace=wrap;connectable=0;strokeColor=inherit;overflow=hidden;fillColor=none;top=0;left=0;bottom=0;right=0;pointerEvents=1;rounded=1;" parent="bp29CIVGbb5XNxqfCRaT-5" vertex="1">
          <mxGeometry x="60" width="126" height="41" as="geometry">
            <mxRectangle width="126" height="41" as="alternateBounds" />
          </mxGeometry>
        </mxCell>
        <mxCell id="bp29CIVGbb5XNxqfCRaT-8" value="integer" style="shape=partialRectangle;html=1;whiteSpace=wrap;connectable=0;strokeColor=inherit;overflow=hidden;fillColor=none;top=0;left=0;bottom=0;right=0;pointerEvents=1;rounded=1;" parent="bp29CIVGbb5XNxqfCRaT-5" vertex="1">
          <mxGeometry x="186" width="93" height="41" as="geometry">
            <mxRectangle width="93" height="41" as="alternateBounds" />
          </mxGeometry>
        </mxCell>
        <mxCell id="_7aba9UNIp-G3qYeoXRk-14" value="" style="shape=tableRow;horizontal=0;startSize=0;swimlaneHead=0;swimlaneBody=0;strokeColor=inherit;top=0;left=0;bottom=0;right=0;collapsible=0;dropTarget=0;fillColor=none;points=[[0,0.5],[1,0.5]];portConstraint=eastwest;rounded=1;" parent="_7aba9UNIp-G3qYeoXRk-1" vertex="1">
          <mxGeometry y="235" width="279" height="41" as="geometry" />
        </mxCell>
        <mxCell id="_7aba9UNIp-G3qYeoXRk-15" value="" style="shape=partialRectangle;html=1;whiteSpace=wrap;connectable=0;strokeColor=inherit;overflow=hidden;fillColor=none;top=0;left=0;bottom=0;right=0;pointerEvents=1;rounded=1;" parent="_7aba9UNIp-G3qYeoXRk-14" vertex="1">
          <mxGeometry width="60" height="41" as="geometry">
            <mxRectangle width="60" height="41" as="alternateBounds" />
          </mxGeometry>
        </mxCell>
        <mxCell id="_7aba9UNIp-G3qYeoXRk-16" value="attempt_date" style="shape=partialRectangle;html=1;whiteSpace=wrap;connectable=0;strokeColor=inherit;overflow=hidden;fillColor=none;top=0;left=0;bottom=0;right=0;pointerEvents=1;rounded=1;" parent="_7aba9UNIp-G3qYeoXRk-14" vertex="1">
          <mxGeometry x="60" width="126" height="41" as="geometry">
            <mxRectangle width="126" height="41" as="alternateBounds" />
          </mxGeometry>
        </mxCell>
        <mxCell id="_7aba9UNIp-G3qYeoXRk-17" value="date" style="shape=partialRectangle;html=1;whiteSpace=wrap;connectable=0;strokeColor=inherit;overflow=hidden;fillColor=none;top=0;left=0;bottom=0;right=0;pointerEvents=1;rounded=1;" parent="_7aba9UNIp-G3qYeoXRk-14" vertex="1">
          <mxGeometry x="186" width="93" height="41" as="geometry">
            <mxRectangle width="93" height="41" as="alternateBounds" />
          </mxGeometry>
        </mxCell>
        <mxCell id="_7aba9UNIp-G3qYeoXRk-26" value="" style="shape=tableRow;horizontal=0;startSize=0;swimlaneHead=0;swimlaneBody=0;strokeColor=inherit;top=0;left=0;bottom=0;right=0;collapsible=0;dropTarget=0;fillColor=none;points=[[0,0.5],[1,0.5]];portConstraint=eastwest;rounded=1;" parent="_7aba9UNIp-G3qYeoXRk-1" vertex="1">
          <mxGeometry y="276" width="279" height="41" as="geometry" />
        </mxCell>
        <mxCell id="_7aba9UNIp-G3qYeoXRk-27" value="" style="shape=partialRectangle;html=1;whiteSpace=wrap;connectable=0;strokeColor=inherit;overflow=hidden;fillColor=none;top=0;left=0;bottom=0;right=0;pointerEvents=1;rounded=1;" parent="_7aba9UNIp-G3qYeoXRk-26" vertex="1">
          <mxGeometry width="60" height="41" as="geometry">
            <mxRectangle width="60" height="41" as="alternateBounds" />
          </mxGeometry>
        </mxCell>
        <mxCell id="_7aba9UNIp-G3qYeoXRk-28" value="attempt_time" style="shape=partialRectangle;html=1;whiteSpace=wrap;connectable=0;strokeColor=inherit;overflow=hidden;fillColor=none;top=0;left=0;bottom=0;right=0;pointerEvents=1;rounded=1;" parent="_7aba9UNIp-G3qYeoXRk-26" vertex="1">
          <mxGeometry x="60" width="126" height="41" as="geometry">
            <mxRectangle width="126" height="41" as="alternateBounds" />
          </mxGeometry>
        </mxCell>
        <mxCell id="_7aba9UNIp-G3qYeoXRk-29" value="time" style="shape=partialRectangle;html=1;whiteSpace=wrap;connectable=0;strokeColor=inherit;overflow=hidden;fillColor=none;top=0;left=0;bottom=0;right=0;pointerEvents=1;rounded=1;" parent="_7aba9UNIp-G3qYeoXRk-26" vertex="1">
          <mxGeometry x="186" width="93" height="41" as="geometry">
            <mxRectangle width="93" height="41" as="alternateBounds" />
          </mxGeometry>
        </mxCell>
        <mxCell id="_7aba9UNIp-G3qYeoXRk-22" value="" style="shape=tableRow;horizontal=0;startSize=0;swimlaneHead=0;swimlaneBody=0;strokeColor=inherit;top=0;left=0;bottom=0;right=0;collapsible=0;dropTarget=0;fillColor=none;points=[[0,0.5],[1,0.5]];portConstraint=eastwest;rounded=1;" parent="_7aba9UNIp-G3qYeoXRk-1" vertex="1">
          <mxGeometry y="317" width="279" height="41" as="geometry" />
        </mxCell>
        <mxCell id="_7aba9UNIp-G3qYeoXRk-23" value="" style="shape=partialRectangle;html=1;whiteSpace=wrap;connectable=0;strokeColor=inherit;overflow=hidden;fillColor=none;top=0;left=0;bottom=0;right=0;pointerEvents=1;rounded=1;" parent="_7aba9UNIp-G3qYeoXRk-22" vertex="1">
          <mxGeometry width="60" height="41" as="geometry">
            <mxRectangle width="60" height="41" as="alternateBounds" />
          </mxGeometry>
        </mxCell>
        <mxCell id="_7aba9UNIp-G3qYeoXRk-24" value="time_taken" style="shape=partialRectangle;html=1;whiteSpace=wrap;connectable=0;strokeColor=inherit;overflow=hidden;fillColor=none;top=0;left=0;bottom=0;right=0;pointerEvents=1;rounded=1;" parent="_7aba9UNIp-G3qYeoXRk-22" vertex="1">
          <mxGeometry x="60" width="126" height="41" as="geometry">
            <mxRectangle width="126" height="41" as="alternateBounds" />
          </mxGeometry>
        </mxCell>
        <mxCell id="_7aba9UNIp-G3qYeoXRk-25" value="varchar" style="shape=partialRectangle;html=1;whiteSpace=wrap;connectable=0;strokeColor=inherit;overflow=hidden;fillColor=none;top=0;left=0;bottom=0;right=0;pointerEvents=1;rounded=1;" parent="_7aba9UNIp-G3qYeoXRk-22" vertex="1">
          <mxGeometry x="186" width="93" height="41" as="geometry">
            <mxRectangle width="93" height="41" as="alternateBounds" />
          </mxGeometry>
        </mxCell>
        <mxCell id="_7aba9UNIp-G3qYeoXRk-18" value="" style="shape=tableRow;horizontal=0;startSize=0;swimlaneHead=0;swimlaneBody=0;strokeColor=inherit;top=0;left=0;bottom=0;right=0;collapsible=0;dropTarget=0;fillColor=none;points=[[0,0.5],[1,0.5]];portConstraint=eastwest;rounded=1;" parent="_7aba9UNIp-G3qYeoXRk-1" vertex="1">
          <mxGeometry y="358" width="279" height="41" as="geometry" />
        </mxCell>
        <mxCell id="_7aba9UNIp-G3qYeoXRk-19" value="" style="shape=partialRectangle;html=1;whiteSpace=wrap;connectable=0;strokeColor=inherit;overflow=hidden;fillColor=none;top=0;left=0;bottom=0;right=0;pointerEvents=1;rounded=1;" parent="_7aba9UNIp-G3qYeoXRk-18" vertex="1">
          <mxGeometry width="60" height="41" as="geometry">
            <mxRectangle width="60" height="41" as="alternateBounds" />
          </mxGeometry>
        </mxCell>
        <mxCell id="_7aba9UNIp-G3qYeoXRk-20" value="total_scored" style="shape=partialRectangle;html=1;whiteSpace=wrap;connectable=0;strokeColor=inherit;overflow=hidden;fillColor=none;top=0;left=0;bottom=0;right=0;pointerEvents=1;rounded=1;" parent="_7aba9UNIp-G3qYeoXRk-18" vertex="1">
          <mxGeometry x="60" width="126" height="41" as="geometry">
            <mxRectangle width="126" height="41" as="alternateBounds" />
          </mxGeometry>
        </mxCell>
        <mxCell id="_7aba9UNIp-G3qYeoXRk-21" value="integer" style="shape=partialRectangle;html=1;whiteSpace=wrap;connectable=0;strokeColor=inherit;overflow=hidden;fillColor=none;top=0;left=0;bottom=0;right=0;pointerEvents=1;rounded=1;" parent="_7aba9UNIp-G3qYeoXRk-18" vertex="1">
          <mxGeometry x="186" width="93" height="41" as="geometry">
            <mxRectangle width="93" height="41" as="alternateBounds" />
          </mxGeometry>
        </mxCell>
        <mxCell id="sorlIlGH3Rbvip4XElev-1" value="user" style="shape=table;startSize=40;container=1;collapsible=0;childLayout=tableLayout;fontStyle=1;align=center;fillColor=#6d8764;fontColor=#ffffff;strokeColor=#3A5431;rounded=1;" parent="1" vertex="1">
          <mxGeometry x="931" y="-2421" width="210" height="188" as="geometry" />
        </mxCell>
        <mxCell id="sorlIlGH3Rbvip4XElev-2" value="" style="shape=tableRow;horizontal=0;startSize=0;swimlaneHead=0;swimlaneBody=0;top=0;left=0;bottom=0;right=0;collapsible=0;dropTarget=0;fillColor=none;points=[[0,0.5],[1,0.5]];portConstraint=eastwest;rounded=1;" parent="sorlIlGH3Rbvip4XElev-1" vertex="1">
          <mxGeometry y="40" width="210" height="31" as="geometry" />
        </mxCell>
        <mxCell id="sorlIlGH3Rbvip4XElev-3" value="PK" style="shape=partialRectangle;html=1;whiteSpace=wrap;connectable=0;fillColor=none;top=0;left=0;bottom=0;right=0;overflow=hidden;rounded=1;" parent="sorlIlGH3Rbvip4XElev-2" vertex="1">
          <mxGeometry width="40" height="31" as="geometry">
            <mxRectangle width="40" height="31" as="alternateBounds" />
          </mxGeometry>
        </mxCell>
        <mxCell id="sorlIlGH3Rbvip4XElev-4" value="id" style="shape=partialRectangle;html=1;whiteSpace=wrap;connectable=0;fillColor=none;top=0;left=0;bottom=0;right=0;overflow=hidden;rounded=1;" parent="sorlIlGH3Rbvip4XElev-2" vertex="1">
          <mxGeometry x="40" width="99" height="31" as="geometry">
            <mxRectangle width="99" height="31" as="alternateBounds" />
          </mxGeometry>
        </mxCell>
        <mxCell id="sorlIlGH3Rbvip4XElev-5" value="integer" style="shape=partialRectangle;html=1;whiteSpace=wrap;connectable=0;fillColor=none;top=0;left=0;bottom=0;right=0;overflow=hidden;rounded=1;" parent="sorlIlGH3Rbvip4XElev-2" vertex="1">
          <mxGeometry x="139" width="71" height="31" as="geometry">
            <mxRectangle width="71" height="31" as="alternateBounds" />
          </mxGeometry>
        </mxCell>
        <mxCell id="sorlIlGH3Rbvip4XElev-6" value="" style="shape=tableRow;horizontal=0;startSize=0;swimlaneHead=0;swimlaneBody=0;top=0;left=0;bottom=0;right=0;collapsible=0;dropTarget=0;fillColor=none;points=[[0,0.5],[1,0.5]];portConstraint=eastwest;rounded=1;" parent="sorlIlGH3Rbvip4XElev-1" vertex="1">
          <mxGeometry y="71" width="210" height="30" as="geometry" />
        </mxCell>
        <mxCell id="sorlIlGH3Rbvip4XElev-7" value="" style="shape=partialRectangle;html=1;whiteSpace=wrap;connectable=0;fillColor=none;top=0;left=0;bottom=0;right=0;overflow=hidden;rounded=1;" parent="sorlIlGH3Rbvip4XElev-6" vertex="1">
          <mxGeometry width="40" height="30" as="geometry">
            <mxRectangle width="40" height="30" as="alternateBounds" />
          </mxGeometry>
        </mxCell>
        <mxCell id="sorlIlGH3Rbvip4XElev-8" value="email" style="shape=partialRectangle;html=1;whiteSpace=wrap;connectable=0;fillColor=none;top=0;left=0;bottom=0;right=0;overflow=hidden;rounded=1;" parent="sorlIlGH3Rbvip4XElev-6" vertex="1">
          <mxGeometry x="40" width="99" height="30" as="geometry">
            <mxRectangle width="99" height="30" as="alternateBounds" />
          </mxGeometry>
        </mxCell>
        <mxCell id="sorlIlGH3Rbvip4XElev-9" value="varchar" style="shape=partialRectangle;html=1;whiteSpace=wrap;connectable=0;fillColor=none;top=0;left=0;bottom=0;right=0;overflow=hidden;rounded=1;" parent="sorlIlGH3Rbvip4XElev-6" vertex="1">
          <mxGeometry x="139" width="71" height="30" as="geometry">
            <mxRectangle width="71" height="30" as="alternateBounds" />
          </mxGeometry>
        </mxCell>
        <mxCell id="sorlIlGH3Rbvip4XElev-10" value="" style="shape=tableRow;horizontal=0;startSize=0;swimlaneHead=0;swimlaneBody=0;top=0;left=0;bottom=0;right=0;collapsible=0;dropTarget=0;fillColor=none;points=[[0,0.5],[1,0.5]];portConstraint=eastwest;rounded=1;" parent="sorlIlGH3Rbvip4XElev-1" vertex="1">
          <mxGeometry y="101" width="210" height="29" as="geometry" />
        </mxCell>
        <mxCell id="sorlIlGH3Rbvip4XElev-11" value="" style="shape=partialRectangle;html=1;whiteSpace=wrap;connectable=0;fillColor=none;top=0;left=0;bottom=0;right=0;overflow=hidden;rounded=1;" parent="sorlIlGH3Rbvip4XElev-10" vertex="1">
          <mxGeometry width="40" height="29" as="geometry">
            <mxRectangle width="40" height="29" as="alternateBounds" />
          </mxGeometry>
        </mxCell>
        <mxCell id="sorlIlGH3Rbvip4XElev-12" value="password" style="shape=partialRectangle;html=1;whiteSpace=wrap;connectable=0;fillColor=none;top=0;left=0;bottom=0;right=0;overflow=hidden;rounded=1;" parent="sorlIlGH3Rbvip4XElev-10" vertex="1">
          <mxGeometry x="40" width="99" height="29" as="geometry">
            <mxRectangle width="99" height="29" as="alternateBounds" />
          </mxGeometry>
        </mxCell>
        <mxCell id="sorlIlGH3Rbvip4XElev-13" value="varchar" style="shape=partialRectangle;html=1;whiteSpace=wrap;connectable=0;fillColor=none;top=0;left=0;bottom=0;right=0;overflow=hidden;rounded=1;" parent="sorlIlGH3Rbvip4XElev-10" vertex="1">
          <mxGeometry x="139" width="71" height="29" as="geometry">
            <mxRectangle width="71" height="29" as="alternateBounds" />
          </mxGeometry>
        </mxCell>
        <mxCell id="sorlIlGH3Rbvip4XElev-14" value="" style="shape=tableRow;horizontal=0;startSize=0;swimlaneHead=0;swimlaneBody=0;top=0;left=0;bottom=0;right=0;collapsible=0;dropTarget=0;fillColor=none;points=[[0,0.5],[1,0.5]];portConstraint=eastwest;rounded=1;" parent="sorlIlGH3Rbvip4XElev-1" vertex="1">
          <mxGeometry y="130" width="210" height="29" as="geometry" />
        </mxCell>
        <mxCell id="sorlIlGH3Rbvip4XElev-15" value="" style="shape=partialRectangle;html=1;whiteSpace=wrap;connectable=0;fillColor=none;top=0;left=0;bottom=0;right=0;overflow=hidden;rounded=1;" parent="sorlIlGH3Rbvip4XElev-14" vertex="1">
          <mxGeometry width="40" height="29" as="geometry">
            <mxRectangle width="40" height="29" as="alternateBounds" />
          </mxGeometry>
        </mxCell>
        <mxCell id="sorlIlGH3Rbvip4XElev-16" value="active" style="shape=partialRectangle;html=1;whiteSpace=wrap;connectable=0;fillColor=none;top=0;left=0;bottom=0;right=0;overflow=hidden;rounded=1;" parent="sorlIlGH3Rbvip4XElev-14" vertex="1">
          <mxGeometry x="40" width="99" height="29" as="geometry">
            <mxRectangle width="99" height="29" as="alternateBounds" />
          </mxGeometry>
        </mxCell>
        <mxCell id="sorlIlGH3Rbvip4XElev-17" value="boolean" style="shape=partialRectangle;html=1;whiteSpace=wrap;connectable=0;fillColor=none;top=0;left=0;bottom=0;right=0;overflow=hidden;rounded=1;" parent="sorlIlGH3Rbvip4XElev-14" vertex="1">
          <mxGeometry x="139" width="71" height="29" as="geometry">
            <mxRectangle width="71" height="29" as="alternateBounds" />
          </mxGeometry>
        </mxCell>
        <mxCell id="sorlIlGH3Rbvip4XElev-18" value="" style="shape=tableRow;horizontal=0;startSize=0;swimlaneHead=0;swimlaneBody=0;top=0;left=0;bottom=0;right=0;collapsible=0;dropTarget=0;fillColor=none;points=[[0,0.5],[1,0.5]];portConstraint=eastwest;rounded=1;" parent="sorlIlGH3Rbvip4XElev-1" vertex="1">
          <mxGeometry y="159" width="210" height="29" as="geometry" />
        </mxCell>
        <mxCell id="sorlIlGH3Rbvip4XElev-19" value="" style="shape=partialRectangle;html=1;whiteSpace=wrap;connectable=0;fillColor=none;top=0;left=0;bottom=0;right=0;overflow=hidden;rounded=1;" parent="sorlIlGH3Rbvip4XElev-18" vertex="1">
          <mxGeometry width="40" height="29" as="geometry">
            <mxRectangle width="40" height="29" as="alternateBounds" />
          </mxGeometry>
        </mxCell>
        <mxCell id="sorlIlGH3Rbvip4XElev-20" value="fs_uniquifier" style="shape=partialRectangle;html=1;whiteSpace=wrap;connectable=0;fillColor=none;top=0;left=0;bottom=0;right=0;overflow=hidden;rounded=1;" parent="sorlIlGH3Rbvip4XElev-18" vertex="1">
          <mxGeometry x="40" width="99" height="29" as="geometry">
            <mxRectangle width="99" height="29" as="alternateBounds" />
          </mxGeometry>
        </mxCell>
        <mxCell id="sorlIlGH3Rbvip4XElev-21" value="varchar" style="shape=partialRectangle;html=1;whiteSpace=wrap;connectable=0;fillColor=none;top=0;left=0;bottom=0;right=0;overflow=hidden;rounded=1;" parent="sorlIlGH3Rbvip4XElev-18" vertex="1">
          <mxGeometry x="139" width="71" height="29" as="geometry">
            <mxRectangle width="71" height="29" as="alternateBounds" />
          </mxGeometry>
        </mxCell>
        <mxCell id="3rizWP3vcZkEydkcHMX4-1" value="" style="edgeStyle=entityRelationEdgeStyle;fontSize=12;html=1;endArrow=ERoneToMany;rounded=0;exitX=0;exitY=0.5;exitDx=0;exitDy=0;" parent="1" source="4AwkM5pFyy2ay1YGQavB-2" target="joHTLbh7ZJ6akPKCv1DX-5" edge="1">
          <mxGeometry width="100" height="100" relative="1" as="geometry">
            <mxPoint x="1350" y="-3009" as="sourcePoint" />
            <mxPoint x="1612" y="-2664" as="targetPoint" />
            <Array as="points">
              <mxPoint x="1197" y="-2889" />
              <mxPoint x="1008" y="-2988" />
              <mxPoint x="1557" y="-2937" />
              <mxPoint x="1575" y="-2745" />
              <mxPoint x="1566" y="-2817" />
            </Array>
          </mxGeometry>
        </mxCell>
        <mxCell id="3rizWP3vcZkEydkcHMX4-7" value="" style="edgeStyle=entityRelationEdgeStyle;fontSize=12;html=1;endArrow=ERoneToMany;rounded=0;entryX=1;entryY=0.5;entryDx=0;entryDy=0;exitX=0;exitY=0.5;exitDx=0;exitDy=0;" parent="1" source="7NI1lbrBGVPZRddGkyEE-2" target="_7aba9UNIp-G3qYeoXRk-6" edge="1">
          <mxGeometry width="100" height="100" relative="1" as="geometry">
            <mxPoint x="726.78" y="-2596" as="sourcePoint" />
            <mxPoint x="831.78" y="-2794" as="targetPoint" />
          </mxGeometry>
        </mxCell>
        <mxCell id="YBMKSEu1XQvhTJPqwpJ5-9" value="" style="shape=partialRectangle;whiteSpace=wrap;html=1;bottom=0;right=0;fillColor=none;" parent="1" vertex="1">
          <mxGeometry x="684" y="-3033" width="45" height="342" as="geometry" />
        </mxCell>
        <mxCell id="YBMKSEu1XQvhTJPqwpJ5-13" value="" style="line;strokeWidth=2;html=1;" parent="1" vertex="1">
          <mxGeometry x="684" y="-2700" width="234" height="10" as="geometry" />
        </mxCell>
        <mxCell id="YBMKSEu1XQvhTJPqwpJ5-21" value="" style="line;strokeWidth=2;html=1;rotation=90;" parent="1" vertex="1">
          <mxGeometry x="903.35" y="-2699.06" width="10" height="8.17" as="geometry" />
        </mxCell>
        <mxCell id="YBMKSEu1XQvhTJPqwpJ5-26" value="" style="edgeStyle=entityRelationEdgeStyle;fontSize=12;html=1;endArrow=ERoneToMany;rounded=0;entryX=1;entryY=0.5;entryDx=0;entryDy=0;" parent="1" source="4AwkM5pFyy2ay1YGQavB-2" target="6c2Jiv0W2mpwmCExSUAj-1" edge="1">
          <mxGeometry width="100" height="100" relative="1" as="geometry">
            <mxPoint x="1197" y="-2641" as="sourcePoint" />
            <mxPoint x="1285" y="-2871" as="targetPoint" />
            <Array as="points">
              <mxPoint x="1242" y="-2844" />
            </Array>
          </mxGeometry>
        </mxCell>
        <mxCell id="3cfJZzSGcITJoVb39pbz-1" value="" style="edgeStyle=entityRelationEdgeStyle;fontSize=12;html=1;endArrow=ERoneToMany;rounded=0;exitX=0;exitY=0.5;exitDx=0;exitDy=0;entryX=1;entryY=0.5;entryDx=0;entryDy=0;" parent="1" source="sorlIlGH3Rbvip4XElev-2" target="_7aba9UNIp-G3qYeoXRk-10" edge="1">
          <mxGeometry width="100" height="100" relative="1" as="geometry">
            <mxPoint x="831" y="-2375" as="sourcePoint" />
            <mxPoint x="931" y="-2475" as="targetPoint" />
          </mxGeometry>
        </mxCell>
        <mxCell id="eHemA6Dbvnoku9Ujjr1b-1" value="" style="edgeStyle=entityRelationEdgeStyle;fontSize=12;html=1;endArrow=ERoneToMany;rounded=0;entryX=0;entryY=0.5;entryDx=0;entryDy=0;exitX=1;exitY=0.5;exitDx=0;exitDy=0;" parent="1" source="7NI1lbrBGVPZRddGkyEE-2" target="niTpbavSG-oRUp3bgsar-15" edge="1">
          <mxGeometry width="100" height="100" relative="1" as="geometry">
            <mxPoint x="1053" y="-2470.5" as="sourcePoint" />
            <mxPoint x="1226" y="-2637" as="targetPoint" />
          </mxGeometry>
        </mxCell>
        <mxCell id="Jl5gvdaFYD0GxguIKS6e-1" value="" style="edgeStyle=entityRelationEdgeStyle;fontSize=12;html=1;endArrow=ERoneToMany;rounded=0;exitX=1;exitY=0.5;exitDx=0;exitDy=0;" parent="1" source="niTpbavSG-oRUp3bgsar-11" target="CIiGBw8oDLtLS_8bqtnP-6" edge="1">
          <mxGeometry width="100" height="100" relative="1" as="geometry">
            <mxPoint x="1512" y="-2591" as="sourcePoint" />
            <mxPoint x="1612" y="-2691" as="targetPoint" />
          </mxGeometry>
        </mxCell>
        <mxCell id="yYRMF35ZuRbXYpXvzcrs-2" value="" style="line;strokeWidth=2;html=1;rotation=-215;" parent="1" vertex="1">
          <mxGeometry x="908" y="-2700" width="10" height="1" as="geometry" />
        </mxCell>
        <mxCell id="yYRMF35ZuRbXYpXvzcrs-7" value="" style="line;strokeWidth=2;html=1;rotation=-145;" parent="1" vertex="1">
          <mxGeometry x="908" y="-2691" width="10" height="1" as="geometry" />
        </mxCell>
      </root>
    </mxGraphModel>
  </diagram>
</mxfile>
